<?xml version="1.0" encoding="UTF-8" standalone="no"?>
<svg
   xmlns:dc="http://purl.org/dc/elements/1.1/"
   xmlns:cc="http://creativecommons.org/ns#"
   xmlns:rdf="http://www.w3.org/1999/02/22-rdf-syntax-ns#"
   xmlns:svg="http://www.w3.org/2000/svg"
   xmlns="http://www.w3.org/2000/svg"
   xmlns:sodipodi="http://sodipodi.sourceforge.net/DTD/sodipodi-0.dtd"
   xmlns:inkscape="http://www.inkscape.org/namespaces/inkscape"
   width="210px"
   height="210px"
   viewBox="0 0 210 297"
   version="1.1"
   id="svg8"
   inkscape:version="1.0.1 (3bc2e813f5, 2020-09-07)"
   sodipodi:docname="icon_covid.svg">
  <defs
     id="defs2" />
  <sodipodi:namedview
     id="base"
     pagecolor="#ffffff"
     bordercolor="#666666"
     borderopacity="1.0"
     inkscape:pageopacity="0.0"
     inkscape:pageshadow="2"
     inkscape:zoom="1.683254"
     inkscape:cx="360.70792"
     inkscape:cy="640.16773"
     inkscape:document-units="mm"
     inkscape:current-layer="layer1"
     inkscape:document-rotation="0"
     showgrid="false"
     inkscape:window-width="1920"
     inkscape:window-height="1080"
     inkscape:window-x="-8"
     inkscape:window-y="-8"
     inkscape:window-maximized="1" />
  <metadata
     id="metadata5">
    <rdf:RDF>
      <cc:Work
         rdf:about="">
        <dc:format>image/svg+xml</dc:format>
        <dc:type
           rdf:resource="http://purl.org/dc/dcmitype/StillImage" />
        <dc:title></dc:title>
      </cc:Work>
    </rdf:RDF>
  </metadata>
  <g
     inkscape:label="Layer 1"
     inkscape:groupmode="layer"
     id="layer1">
    <path
       id="path837"
       style="opacity:1;fill:#ff0000;fill-opacity:1;fill-rule:evenodd;stroke:#ff0000;stroke-width:1;stroke-miterlimit:4;stroke-dasharray:none;stroke-dashoffset:0;stroke-opacity:1"
       d="m 103.48612,116.03126 a 6.9999999,5 0 0 0 -7.00008,5.00022 6.9999999,5 0 0 0 3.9212,4.49016 c -1.92632,3.3805 -4.343895,9.01389 -6.698295,15.34273 a 33.261903,33.261903 0 0 0 -3.240111,1.24696 C 84.436966,138.7428 78.77846,135.95941 75.057371,134.65338 a 5,6.9999999 41.47989 0 0 -0.550871,-6.39857 5,6.9999999 41.47989 0 0 -8.382433,1.9327 5,6.9999999 41.47989 0 0 -0.890387,8.55606 5,6.9999999 41.47989 0 0 5.613096,0.22066 c 0.76332,3.96927 2.539177,9.87632 4.772834,16.20315 a 33.261903,33.261903 0 0 0 -3.487126,7.84551 c -6.76308,2.5854 -12.858758,5.29225 -16.376261,7.40523 a 5,6.9999999 0 0 0 -4.657079,-4.45295 5,6.9999999 0 0 0 -4.999696,7.00009 5,6.9999999 0 0 0 4.999696,7.00009 5,6.9999999 0 0 0 4.517554,-3.99924 c 3.560678,2.08242 9.904058,4.78135 16.950386,7.35459 a 33.261903,33.261903 0 0 0 2.895946,6.22959 c -2.574491,6.93565 -4.618701,13.4846 -5.37228,17.62838 a 6.9999999,5 32.178801 0 0 -6.849194,1.36788 6.9999999,5 32.178801 0 0 3.262331,7.96023 6.9999999,5 32.178801 0 0 8.587591,-0.50436 6.9999999,5 32.178801 0 0 -0.41393,-5.16609 c 3.940689,-1.39558 9.917142,-4.30387 16.232084,-7.77627 a 33.261903,33.261903 0 0 0 2.331125,0.8971 c 2.459117,6.47512 5.045143,12.39064 7.135473,16.07758 a 6.9999999,5 0 0 0 -3.51192,4.33513 6.9999999,5 0 0 0 6.99956,5.00021 6.9999999,5 0 0 0 7.00009,-5.00021 6.9999999,5 0 0 0 -3.90519,-4.485 c 1.95152,-3.61522 4.33829,-9.28584 6.63474,-15.54272 a 33.261903,33.261903 0 0 0 2.14612,-0.72605 c 5.93126,3.34235 11.57787,6.16965 15.45178,7.62537 a 5,6.9999999 59.365251 0 0 -0.69247,5.35626 5,6.9999999 59.365251 0 0 8.57054,0.73536 5,6.9999999 59.365251 0 0 3.47524,-7.86929 5,6.9999999 59.365251 0 0 -6.33708,-1.7017 c -0.68056,-3.89471 -2.46938,-9.93252 -4.7625,-16.45894 a 33.261903,33.261903 0 0 0 4.18682,-8.48062 c 6.44328,-2.49217 12.19579,-5.07043 15.57114,-7.09931 a 5,6.9999999 0 0 0 4.59559,4.24212 5,6.9999999 0 0 0 4.99969,-7.00009 5,6.9999999 0 0 0 -4.99969,-7.00009 5,6.9999999 0 0 0 -4.5682,4.15478 c -3.29679,-1.91066 -8.89147,-4.32686 -15.21044,-6.68899 a 33.261903,33.261903 0 0 0 -3.8592,-8.66769 c 2.39428,-6.62904 4.23594,-12.74244 4.82245,-16.48272 a 6.9999999,5 29.167694 0 0 7.16287,-1.59111 6.9999999,5 29.167694 0 0 -3.67575,-7.77782 6.9999999,5 29.167694 0 0 -8.54883,0.95446 6.9999999,5 29.167694 0 0 0.79479,5.29063 c -3.59078,1.21378 -9.07733,3.82555 -15.00477,7.02128 a 33.261903,33.261903 0 0 0 -4.6576,-1.69912 c -2.3727,-6.09491 -4.81035,-11.53706 -6.76651,-14.86524 a 6.9999999,5 0 0 0 4.19871,-4.58215 6.9999999,5 0 0 0 -7.00009,-5.00022 z" />
    <path
       style="opacity:0;fill:none;fill-opacity:1;stroke:#ff0000;stroke-width:0.598184;stroke-linecap:round;stroke-linejoin:round;stroke-miterlimit:4;stroke-dasharray:none;stroke-dashoffset:0;stroke-opacity:1"
       id="path3094"
       sodipodi:type="arc"
       sodipodi:cx="104.03355"
       sodipodi:cy="172.38911"
       sodipodi:rx="18.493727"
       sodipodi:ry="18.626503"
       sodipodi:start="0.92522871"
       sodipodi:end="0.89847488"
       sodipodi:arc-type="slice"
       d="m 115.16033,187.26719 a 18.493727,18.626503 0 0 1 -25.824052,-3.57214 18.493727,18.626503 0 0 1 3.37388,-26.03277 18.493727,18.626503 0 0 1 25.869182,3.2239 18.493727,18.626503 0 0 1 -3.02783,26.0759 l -11.51796,-14.57297 z" />
  </g>
</svg>
