<?xml version="1.0" encoding="UTF-8" standalone="no"?>
<svg
   xmlns:dc="http://purl.org/dc/elements/1.1/"
   xmlns:cc="http://creativecommons.org/ns#"
   xmlns:rdf="http://www.w3.org/1999/02/22-rdf-syntax-ns#"
   xmlns:svg="http://www.w3.org/2000/svg"
   xmlns="http://www.w3.org/2000/svg"
   xmlns:sodipodi="http://sodipodi.sourceforge.net/DTD/sodipodi-0.dtd"
   xmlns:inkscape="http://www.inkscape.org/namespaces/inkscape"
   width="165.43604mm"
   height="19.028469mm"
   viewBox="0 0 165.43604 19.028469"
   version="1.1"
   id="svg1246"
   sodipodi:docname="coronga_tracker.svg"
   inkscape:version="1.0.1 (3bc2e813f5, 2020-09-07)">
  <defs
     id="defs1240" />
  <sodipodi:namedview
     id="base"
     pagecolor="#ffffff"
     bordercolor="#666666"
     borderopacity="1.0"
     inkscape:pageopacity="0.0"
     inkscape:pageshadow="2"
     inkscape:zoom="1.4"
     inkscape:cx="267.14394"
     inkscape:cy="76.827971"
     inkscape:document-units="px"
     inkscape:current-layer="layer1"
     inkscape:document-rotation="0"
     showgrid="false"
     inkscape:window-width="1920"
     inkscape:window-height="1057"
     inkscape:window-x="-8"
     inkscape:window-y="-8"
     inkscape:window-maximized="1"
     fit-margin-top="0"
     fit-margin-left="0"
     fit-margin-right="0"
     fit-margin-bottom="0" />
  <metadata
     id="metadata1243">
    <rdf:RDF>
      <cc:Work
         rdf:about="">
        <dc:format>image/svg+xml</dc:format>
        <dc:type
           rdf:resource="http://purl.org/dc/dcmitype/StillImage" />
        <dc:title></dc:title>
      </cc:Work>
    </rdf:RDF>
  </metadata>
  <g
     inkscape:label="Layer 1"
     inkscape:groupmode="layer"
     id="layer1"
     transform="translate(-1.3179895,-1.5690961)">
    <path
       style="color:#000000;font-style:normal;font-variant:normal;font-weight:normal;font-stretch:normal;font-size:medium;line-height:normal;font-family:sans-serif;font-variant-ligatures:normal;font-variant-position:normal;font-variant-caps:normal;font-variant-numeric:normal;font-variant-alternates:normal;font-variant-east-asian:normal;font-feature-settings:normal;font-variation-settings:normal;text-indent:0;text-align:start;text-decoration:none;text-decoration-line:none;text-decoration-style:solid;text-decoration-color:#000000;letter-spacing:normal;word-spacing:normal;text-transform:none;writing-mode:lr-tb;direction:ltr;text-orientation:mixed;dominant-baseline:auto;baseline-shift:baseline;text-anchor:start;white-space:normal;shape-padding:0;shape-margin:0;inline-size:0;clip-rule:nonzero;display:inline;overflow:visible;visibility:visible;isolation:auto;mix-blend-mode:normal;color-interpolation:sRGB;color-interpolation-filters:linearRGB;solid-color:#000000;solid-opacity:1;vector-effect:none;fill:#ff0000;fill-opacity:1;fill-rule:evenodd;stroke:none;stroke-width:0.157677;stroke-linecap:butt;stroke-linejoin:miter;stroke-miterlimit:4;stroke-dasharray:none;stroke-dashoffset:0;stroke-opacity:1;color-rendering:auto;image-rendering:auto;shape-rendering:auto;text-rendering:auto;enable-background:accumulate;stop-color:#000000"
       d="m 155.90615,2.2148789 c -0.6096,0 -1.10377,0.3529918 -1.10375,0.7884172 3e-5,0.3009426 0.23991,0.5756162 0.61829,0.7079861 -0.30374,0.5330276 -0.68494,1.421286 -1.05617,2.4192088 -0.17361,0.05659 -0.34414,0.1222156 -0.51089,0.1966077 -0.95109,-0.5311355 -1.84331,-0.970014 -2.43004,-1.1759404 0.19009,-0.3944924 0.15564,-0.7945509 -0.0869,-1.0089129 -0.32621,-0.2883915 -0.91797,-0.1519535 -1.32172,0.3047426 -0.40375,0.4566961 -0.46661,1.0607099 -0.14039,1.3491014 0.21285,0.1881561 0.55096,0.2014483 0.88506,0.034784 0.12035,0.6258679 0.40037,1.5572668 0.75256,2.5548743 -0.23595,0.3868608 -0.42077,0.802687 -0.54984,1.237056 -1.06638,0.4076583 -2.02753,0.8344583 -2.58216,1.1676303 -0.11815,-0.42341 -0.40962,-0.702105 -0.73432,-0.702121 -0.43539,3.2e-5 -0.78834,0.494192 -0.78833,1.103756 0,0.609548 0.35294,1.103709 0.78833,1.10374 0.3045,3.2e-5 0.58179,-0.24544 0.71232,-0.630582 0.56144,0.328347 1.56164,0.753917 2.67269,1.159652 0.1179,0.342301 0.27092,0.671484 0.45662,0.982266 -0.40593,1.093585 -0.72826,2.126213 -0.84708,2.779595 -0.45212,-0.169865 -0.89266,-0.0819 -1.07996,0.215671 -0.23192,0.368555 -0.002,0.930516 0.51439,1.255157 0.51597,0.324642 1.12221,0.289038 1.35407,-0.07953 0.13991,-0.222467 0.11544,-0.52795 -0.0653,-0.814575 0.62136,-0.220055 1.56371,-0.678611 2.55943,-1.226129 0.12071,0.05173 0.24332,0.09893 0.36757,0.141452 0.38774,1.020976 0.7955,1.953714 1.1251,2.535055 -0.34257,0.140632 -0.55377,0.401335 -0.55375,0.683561 -3e-5,0.43541 0.4941,0.788386 1.10367,0.788418 0.6096,0 1.10377,-0.352992 1.10375,-0.788418 2e-5,-0.300248 -0.23873,-0.574433 -0.61576,-0.707182 0.30771,-0.57005 0.68405,-1.464174 1.04615,-2.450744 0.11406,-0.03431 0.22693,-0.07248 0.33839,-0.114473 0.93523,0.527004 1.82557,0.972805 2.4364,1.202351 -0.20725,0.289605 -0.24857,0.609233 -0.10919,0.84455 0.22186,0.374625 0.82688,0.426548 1.35138,0.115956 0.52452,-0.310624 0.76986,-0.866168 0.54796,-1.240809 -0.16842,-0.284434 -0.56736,-0.391559 -0.99921,-0.268319 -0.10731,-0.614105 -0.38936,-1.566128 -0.75094,-2.595192 0.28263,-0.412011 0.50493,-0.862305 0.66017,-1.337213 1.01596,-0.392947 1.923,-0.799486 2.45521,-1.119397 0.12425,0.405782 0.40926,0.668882 0.72462,0.668882 0.43539,-3.1e-5 0.78834,-0.494192 0.78834,-1.10374 0,-0.609564 -0.35294,-1.103724 -0.78834,-1.103756 -0.31145,1.6e-5 -0.5937,0.256715 -0.7203,0.655102 -0.51983,-0.301258 -1.40198,-0.682238 -2.39834,-1.0546875 -0.13648,-0.4823028 -0.3414,-0.9425467 -0.60851,-1.3666982 0.37753,-1.0452575 0.66791,-2.0092009 0.76039,-2.5989607 0.47991,0.1759519 0.94937,0.071664 1.12942,-0.2508801 0.21223,-0.3802069 -0.0473,-0.9293018 -0.57958,-1.2263813 -0.53226,-0.2970479 -1.13575,-0.2296725 -1.34795,0.1505029 -0.1321,0.2366418 -0.0848,0.5516807 0.12532,0.8342066 -0.56619,0.1913885 -1.43129,0.6032097 -2.36591,1.1070985 -0.23779,-0.1074412 -0.48328,-0.1970018 -0.7344,-0.2679092 -0.37412,-0.9610264 -0.75848,-1.8191369 -1.06692,-2.343918 0.40212,-0.1254322 0.66203,-0.4090776 0.66204,-0.7224924 2e-5,-0.4354254 -0.49415,-0.7884172 -1.10376,-0.7884172 z"
       id="path1182" />
    <path
       style="color:#000000;font-style:normal;font-variant:normal;font-weight:normal;font-stretch:normal;font-size:medium;line-height:normal;font-family:sans-serif;font-variant-ligatures:normal;font-variant-position:normal;font-variant-caps:normal;font-variant-numeric:normal;font-variant-alternates:normal;font-variant-east-asian:normal;font-feature-settings:normal;font-variation-settings:normal;text-indent:0;text-align:start;text-decoration:none;text-decoration-line:none;text-decoration-style:solid;text-decoration-color:#000000;letter-spacing:normal;word-spacing:normal;text-transform:none;writing-mode:lr-tb;direction:ltr;text-orientation:mixed;dominant-baseline:auto;baseline-shift:baseline;text-anchor:start;white-space:normal;shape-padding:0;shape-margin:0;inline-size:0;clip-rule:nonzero;display:inline;overflow:visible;visibility:visible;isolation:auto;mix-blend-mode:normal;color-interpolation:sRGB;color-interpolation-filters:linearRGB;solid-color:#000000;solid-opacity:1;vector-effect:none;fill:#ff0000;fill-opacity:1;fill-rule:evenodd;stroke:none;stroke-width:0.157677;stroke-linecap:butt;stroke-linejoin:miter;stroke-miterlimit:4;stroke-dasharray:none;stroke-dashoffset:0;stroke-opacity:1;color-rendering:auto;image-rendering:auto;shape-rendering:auto;text-rendering:auto;enable-background:accumulate;stop-color:#000000"
       d="m 155.90618,2.1360561 c -0.32002,0 -0.61109,0.091752 -0.82626,0.245456 -0.21518,0.1536879 -0.35633,0.3742309 -0.35632,0.6217682 3e-5,0.3166157 0.24598,0.5828693 0.59684,0.7341921 -0.29926,0.5382782 -0.66047,1.3777198 -1.01659,2.3318872 -0.15082,0.050394 -0.2993,0.1075516 -0.44501,0.1712374 -0.9088,-0.5061436 -1.75009,-0.9188793 -2.33775,-1.1330049 0.16137,-0.3928526 0.12695,-0.7952919 -0.13211,-1.0242864 -0.18545,-0.163937 -0.44418,-0.20446 -0.70185,-0.1450472 -0.25766,0.059413 -0.51915,0.2166484 -0.7311,0.4563964 -0.21196,0.2397481 -0.33603,0.5189155 -0.3634,0.781921 -0.0274,0.2630054 0.0443,0.5145005 0.22974,0.6784532 0.22116,0.1955039 0.55391,0.1997296 0.87954,0.068353 0.12652,0.6240704 0.39,1.5027105 0.72526,2.4553957 -0.22309,0.3718185 -0.39999,0.7694172 -0.52662,1.1841238 -1.01544,0.3894468 -1.91633,0.7907504 -2.48034,1.1191294 -0.14042,-0.396873 -0.43062,-0.672572 -0.77422,-0.672588 -0.24752,1.6e-5 -0.46809,0.141137 -0.62177,0.356319 -0.15369,0.215166 -0.24545,0.50627 -0.24545,0.82626 0,0.31999 0.0918,0.611093 0.24545,0.82626 0.15368,0.215182 0.37425,0.356303 0.62177,0.356318 0.32056,3.2e-5 0.5891,-0.25129 0.73912,-0.608838 0.57254,0.325918 1.52045,0.73025 2.58812,1.121289 0.11333,0.32111 0.25715,0.630567 0.42961,0.924193 -0.38791,1.048159 -0.69116,2.023329 -0.81918,2.681442 -0.44787,-0.138362 -0.88937,-0.05093 -1.08989,0.267625 -0.13184,0.209522 -0.12984,0.471313 -0.0296,0.716012 0.10028,0.244683 0.29793,0.477525 0.56881,0.647959 0.27086,0.170417 0.56598,0.247695 0.82996,0.232195 0.26397,-0.01545 0.50105,-0.127072 0.63286,-0.336609 0.14483,-0.230272 0.11251,-0.530268 -0.0354,-0.8124 0.62165,-0.227481 1.51311,-0.660399 2.4674,-1.183809 0.0997,0.0419 0.20061,0.08067 0.30273,0.116413 0.37363,0.980689 0.76179,1.866803 1.08618,2.450461 -0.31622,0.156762 -0.5334,0.410591 -0.53339,0.706772 -1e-5,0.247521 0.14085,0.46808 0.356,0.621784 0.21516,0.153688 0.50627,0.245424 0.82627,0.24544 0.32002,0 0.61109,-0.09175 0.82626,-0.24544 0.21518,-0.153704 0.35633,-0.374247 0.35632,-0.621784 2e-5,-0.316127 -0.24491,-0.582081 -0.59499,-0.733562 0.30168,-0.570097 0.65871,-1.417312 1.00643,-2.361467 0.0914,-0.02821 0.1819,-0.05869 0.27162,-0.09177 0.89444,0.502769 1.73536,0.922837 2.34329,1.158249 -0.17214,0.286657 -0.22139,0.59941 -0.077,0.843194 0.12613,0.212975 0.35987,0.330949 0.62332,0.353544 0.26345,0.02261 0.56078,-0.04667 0.83612,-0.209726 0.27535,-0.163054 0.47892,-0.390661 0.58575,-0.632554 0.10682,-0.241892 0.11598,-0.503337 -0.0102,-0.716311 -0.18023,-0.304365 -0.58189,-0.411948 -1.00766,-0.3169 -0.11483,-0.615918 -0.38036,-1.514016 -0.72464,-2.497275 0.2687,-0.398276 0.48244,-0.830485 0.63502,-1.286062 0.96644,-0.374972 1.81658,-0.757071 2.35684,-1.072015 0.14508,0.37945 0.42919,0.639948 0.76252,0.639948 0.24752,-1.5e-5 0.46779,-0.141136 0.62147,-0.356318 0.15369,-0.215167 0.24576,-0.50627 0.24576,-0.82626 0,-0.31999 -0.0921,-0.611094 -0.24576,-0.82626 -0.15368,-0.215182 -0.37395,-0.356303 -0.62147,-0.356319 -0.32952,1.6e-5 -0.61158,0.25487 -0.7582,0.627934 -0.52693,-0.296086 -1.3525,-0.6538085 -2.29833,-1.0085821 -0.13472,-0.4624355 -0.33152,-0.9042626 -0.58513,-1.3137659 0.35862,-0.9963619 0.62978,-1.900861 0.73295,-2.4985047 0.47644,0.1436912 0.94676,0.040507 1.14008,-0.305799 0.12065,-0.2161596 0.10498,-0.4775568 -0.008,-0.7166426 -0.11299,-0.2390701 -0.32231,-0.4611899 -0.60176,-0.6171484 -0.27942,-0.1559426 -0.57858,-0.2175156 -0.84136,-0.1881719 -0.26277,0.029344 -0.49344,0.1531203 -0.61407,0.3692484 -0.13626,0.2440842 -0.0818,0.5508766 0.0918,0.8302647 -0.5675,0.2001554 -1.37942,0.585471 -2.26877,1.0637058 -0.21745,-0.096278 -0.44115,-0.1778441 -0.66951,-0.2442104 -0.35623,-0.9120519 -0.71715,-1.7154957 -1.01936,-2.2444395 0.37612,-0.1458828 0.63379,-0.4286926 0.63379,-0.7600511 2e-5,-0.2475373 -0.14114,-0.4680803 -0.35631,-0.6217682 -0.21518,-0.1537037 -0.50625,-0.245456 -0.82627,-0.245456 z m 0,0.1576771 c 0.28959,0 0.55019,0.084547 0.73449,0.2161911 0.18431,0.1316604 0.29042,0.3054679 0.29041,0.493356 0,0.2698329 -0.2276,0.5291014 -0.60668,0.6473435 l -0.0949,0.029565 0.0505,0.085619 c 0.30392,0.5170706 0.68799,1.373699 1.06124,2.3325021 l 0.0142,0.036644 0.0379,0.010564 c 0.24735,0.069835 0.48919,0.1580871 0.72341,0.26392 l 0.0354,0.016004 0.0345,-0.018464 c 0.93253,-0.5027693 1.797,-0.9133921 2.35376,-1.1015956 l 0.10255,-0.034799 -0.0647,-0.087148 c -0.19673,-0.2645664 -0.23347,-0.5450268 -0.1198,-0.7486668 0.0916,-0.1640315 0.26889,-0.2640461 0.49398,-0.2891641 0.22508,-0.025134 0.49396,0.027956 0.74681,0.1690614 0.25286,0.1411368 0.43938,0.3421594 0.53616,0.5469505 0.0968,0.2047753 0.10451,0.4081315 0.0129,0.5721946 -0.15515,0.2779375 -0.57836,0.3820201 -1.03322,0.2152608 l -0.0902,-0.032954 -0.0148,0.094858 c -0.0906,0.5777922 -0.38002,1.5415779 -0.75667,2.584423 l -0.0132,0.036029 0.0206,0.032655 c 0.26309,0.4177656 0.46486,0.8710401 0.5993,1.3461055 l 0.0108,0.038489 0.0376,0.013876 c 0.99414,0.3716138 1.87511,0.7529248 2.38641,1.0492308 l 0.0847,0.04927 0.0299,-0.09363 c 0.11932,-0.375461 0.37705,-0.600198 0.64519,-0.600214 0.18787,1.6e-5 0.36172,0.106101 0.49335,0.29041 0.13164,0.184309 0.2162,0.444933 0.21619,0.734491 0,0.289559 -0.0845,0.550499 -0.21619,0.734807 -0.13163,0.184293 -0.30548,0.290079 -0.49335,0.290095 -0.27151,0 -0.53203,-0.230524 -0.64919,-0.613159 l -0.0296,-0.09639 -0.0865,0.05205 c -0.5236,0.314724 -1.42946,0.721247 -2.44307,1.113279 l -0.0348,0.01356 -0.0117,0.03541 c -0.15291,0.467765 -0.37173,0.911326 -0.65011,1.317156 l -0.0228,0.03295 0.0132,0.03787 c 0.36078,1.02681 0.64208,1.97795 0.74774,2.582579 l 0.0151,0.08623 0.0844,-0.02401 c 0.40793,-0.116413 0.76469,-0.01214 0.90972,0.23281 0.0958,0.161667 0.093,0.365007 0.002,0.572195 -0.0915,0.207203 -0.27283,0.412941 -0.522,0.560495 -0.24915,0.147538 -0.51654,0.207834 -0.74219,0.188471 -0.22565,-0.01936 -0.40532,-0.115199 -0.50106,-0.276849 -0.11994,-0.202505 -0.0888,-0.486907 0.10533,-0.758207 l 0.0597,-0.08377 -0.0961,-0.03603 c -0.60298,-0.226597 -1.49237,-0.671531 -2.42552,-1.197353 l -0.032,-0.01786 -0.0345,0.01293 c -0.10979,0.04136 -0.22086,0.07893 -0.33322,0.112708 l -0.0376,0.01135 -0.0135,0.03696 c -0.36132,0.984442 -0.73743,1.876926 -1.04153,2.44029 l -0.044,0.08131 0.0871,0.03048 c 0.35479,0.124912 0.56297,0.374421 0.56296,0.632869 1e-5,0.187888 -0.1058,0.361712 -0.2901,0.493356 -0.18431,0.131661 -0.44522,0.216191 -0.7348,0.216191 -0.28957,-1.5e-5 -0.5502,-0.08455 -0.73449,-0.216191 -0.1843,-0.131644 -0.29012,-0.305484 -0.29011,-0.493356 -1e-5,-0.242886 0.18332,-0.478424 0.50476,-0.610384 l 0.0828,-0.03418 -0.0444,-0.07791 c -0.32551,-0.574134 -0.73286,-1.505343 -1.11975,-2.524064 l -0.0132,-0.0345 -0.0351,-0.01198 c -0.12239,-0.04188 -0.24297,-0.08854 -0.36186,-0.139497 l -0.0354,-0.01514 -0.0339,0.01848 c -0.99361,0.546351 -1.93527,1.004151 -2.54778,1.221067 l -0.0927,0.03295 0.0524,0.08346 c 0.16895,0.267972 0.18569,0.53905 0.0653,0.730486 -0.10004,0.159033 -0.28234,0.249713 -0.50845,0.263006 -0.2261,0.01325 -0.49185,-0.05397 -0.73695,-0.208181 -0.24512,-0.154224 -0.4207,-0.364771 -0.5066,-0.574355 -0.0859,-0.2096 -0.0831,-0.413177 0.0169,-0.572195 0.16134,-0.256336 0.55753,-0.344651 0.98548,-0.183867 l 0.0884,0.03327 0.0169,-0.09301 c 0.11695,-0.64307 0.43847,-1.674941 0.84351,-2.766114 l 0.0132,-0.03541 -0.0194,-0.03266 c -0.18292,-0.306114 -0.33381,-0.63014 -0.44994,-0.967301 l -0.012,-0.03573 -0.0354,-0.01261 c -1.10868,-0.404868 -2.10803,-0.830896 -2.65988,-1.153629 l -0.0834,-0.04896 -0.0311,0.09147 c -0.1229,0.362626 -0.37536,0.57713 -0.63748,0.577115 -0.18787,-1.6e-5 -0.36172,-0.105802 -0.49336,-0.290095 -0.13163,-0.184309 -0.21619,-0.445249 -0.21619,-0.734807 0,-0.289558 0.0846,-0.550183 0.21619,-0.734492 0.13164,-0.184308 0.30549,-0.290393 0.49336,-0.290409 0.27958,1.6e-5 0.54689,0.244872 0.65842,0.644568 l 0.0277,0.09948 0.0887,-0.05328 c 0.54564,-0.32778 1.50564,-0.75458 2.56964,-1.1613401 l 0.0363,-0.013876 0.0111,-0.037559 c 0.12713,-0.4278569 0.30931,-0.8372499 0.54171,-1.2183082 l 0.0194,-0.032024 -0.0123,-0.035414 C 151.23532,7.363952 150.95599,6.433783 150.83717,5.8159409 l -0.0197,-0.1019383 -0.093,0.046499 c -0.31358,0.1564315 -0.61444,0.1385352 -0.79762,-0.023399 -0.14077,-0.1244388 -0.20083,-0.318902 -0.17739,-0.5441753 0.0234,-0.2252733 0.13279,-0.4768945 0.32459,-0.6938425 0.1918,-0.2169322 0.42787,-0.35624 0.64857,-0.4071224 0.22071,-0.050882 0.42127,-0.015137 0.56204,0.1093334 0.2088,0.1845611 0.24748,0.5432135 0.068,0.915568 l -0.0382,0.079454 0.0832,0.029265 c 0.57727,0.2025994 1.46861,0.6403427 2.41751,1.1702482 l 0.0345,0.01941 0.036,-0.01602 c 0.16425,-0.073257 0.33222,-0.1379517 0.50321,-0.1937064 l 0.0363,-0.011668 0.0132,-0.03573 c 0.37041,-0.9957154 0.75164,-1.8827124 1.05077,-2.4076511 l 0.0468,-0.082229 -0.0893,-0.031409 c -0.35609,-0.124565 -0.5654,-0.3744359 -0.56542,-0.6334837 -10e-6,-0.1878881 0.10579,-0.3616956 0.2901,-0.493356 0.18431,-0.1316447 0.44522,-0.2161911 0.7348,-0.2161911 z"
       id="path1184" />
    <g
       aria-label="Coronga Tracker"
       id="text2129"
       style="font-size:16.9333px;line-height:1.25;font-family:sans-serif;letter-spacing:0.264583px;stroke-width:0.264583">
      <g
         id="g2162"
         style="opacity:1">
        <path
           style="color:#000000;font-style:normal;font-variant:normal;font-weight:normal;font-stretch:normal;font-size:16.9333px;line-height:1.25;font-family:sans-serif;font-variant-ligatures:normal;font-variant-position:normal;font-variant-caps:normal;font-variant-numeric:normal;font-variant-alternates:normal;font-variant-east-asian:normal;font-feature-settings:normal;font-variation-settings:normal;text-indent:0;text-align:start;text-decoration:none;text-decoration-line:none;text-decoration-style:solid;text-decoration-color:#000000;letter-spacing:0.264583px;word-spacing:normal;text-transform:none;writing-mode:lr-tb;direction:ltr;text-orientation:mixed;dominant-baseline:auto;baseline-shift:baseline;text-anchor:start;white-space:normal;shape-padding:0;shape-margin:0;inline-size:0;clip-rule:nonzero;display:inline;overflow:visible;visibility:visible;isolation:auto;mix-blend-mode:normal;color-interpolation:sRGB;color-interpolation-filters:linearRGB;solid-color:#000000;solid-opacity:1;vector-effect:none;fill:#ff0000;fill-opacity:1;fill-rule:nonzero;stroke:none;stroke-width:0.264583;stroke-linecap:butt;stroke-linejoin:miter;stroke-miterlimit:4;stroke-dasharray:none;stroke-dashoffset:0;stroke-opacity:1;color-rendering:auto;image-rendering:auto;shape-rendering:auto;text-rendering:auto;enable-background:accumulate;stop-color:#000000;stop-opacity:1"
           d="m 13.79709,15.246044 c -0.303168,0.132291 -0.578775,0.256315 -0.826822,0.37207 -0.242534,0.115755 -0.562238,0.237022 -0.959112,0.363801 -0.336241,0.104731 -0.702798,0.192925 -1.099673,0.264583 -0.391362,0.07717 -0.824065,0.115755 -1.2981092,0.115755 -0.892967,0 -1.7060079,-0.124023 -2.4391228,-0.372069 C 6.4466483,15.736625 5.812752,15.342507 5.2725621,14.807829 4.7433964,14.284176 4.3299858,13.619963 4.0323301,12.81519 3.7346744,12.004905 3.5858466,11.065085 3.5858466,9.9957292 c 0,-1.0142341 0.1433157,-1.9209815 0.4299471,-2.720242 C 4.3024251,6.4762266 4.7158357,5.8009892 5.2560256,5.249775 5.7796791,4.7150972 6.4108194,4.3071987 7.1494464,4.0260795 7.8935855,3.7449602 8.7176507,3.6044006 9.621642,3.6044006 c 0.661457,0 1.320158,0.079926 1.976103,0.2397782 0.661457,0.1598521 1.394572,0.4409714 2.199345,0.8433577 v 1.94303 H 13.673066 C 12.995073,6.0628159 12.322591,5.6494053 11.655622,5.3903346 10.988653,5.1312639 10.274831,5.0017286 9.5141553,5.0017286 c -0.6228721,0 -1.1851106,0.1019746 -1.6867155,0.3059239 C 7.3313471,5.5060896 6.8876197,5.8175256 6.4962576,6.2419605 6.1159198,6.6553712 5.8182641,7.1790247 5.6032906,7.812921 5.3938292,8.4413052 5.2890985,9.1689079 5.2890985,9.9957292 c 0,0.8654068 0.115755,1.6095458 0.3472649,2.2324178 0.2370221,0.622872 0.5401899,1.129989 0.9095034,1.521351 0.3858499,0.407899 0.8350895,0.711066 1.3477187,0.909503 0.5181414,0.192925 1.0638435,0.289388 1.6371062,0.289388 0.7882363,0 1.5268633,-0.135048 2.2158813,-0.405143 0.689017,-0.270095 1.333938,-0.675237 1.934762,-1.215427 h 0.115755 z"
           id="path2164" />
        <path
           style="color:#000000;font-style:normal;font-variant:normal;font-weight:normal;font-stretch:normal;font-size:16.9333px;line-height:1.25;font-family:sans-serif;font-variant-ligatures:normal;font-variant-position:normal;font-variant-caps:normal;font-variant-numeric:normal;font-variant-alternates:normal;font-variant-east-asian:normal;font-feature-settings:normal;font-variation-settings:normal;text-indent:0;text-align:start;text-decoration:none;text-decoration-line:none;text-decoration-style:solid;text-decoration-color:#000000;letter-spacing:0.264583px;word-spacing:normal;text-transform:none;writing-mode:lr-tb;direction:ltr;text-orientation:mixed;dominant-baseline:auto;baseline-shift:baseline;text-anchor:start;white-space:normal;shape-padding:0;shape-margin:0;inline-size:0;clip-rule:nonzero;display:inline;overflow:visible;visibility:visible;isolation:auto;mix-blend-mode:normal;color-interpolation:sRGB;color-interpolation-filters:linearRGB;solid-color:#000000;solid-opacity:1;vector-effect:none;fill:#000000;fill-opacity:1;fill-rule:nonzero;stroke:none;stroke-width:0.264583;stroke-linecap:butt;stroke-linejoin:miter;stroke-miterlimit:4;stroke-dasharray:none;stroke-dashoffset:0;stroke-opacity:1;color-rendering:auto;image-rendering:auto;shape-rendering:auto;text-rendering:auto;enable-background:accumulate;stop-color:#000000;stop-opacity:1"
           d="m 9.6210938,3.4726562 c -0.9177045,0 -1.7568718,0.1423096 -2.5175782,0.4296876 h -0.00195 C 6.3465902,4.1896839 5.6994094,4.6076384 5.1621094,5.15625 4.607734,5.7219392 4.1829086,6.4154471 3.890625,7.2304688 c -0.2926337,0.8159976 -0.4375,1.7389286 -0.4375,2.765625 0,1.0816302 0.1509273,2.0372682 0.4550781,2.8652342 0.3032652,0.819939 0.7270496,1.502252 1.2714844,2.041016 0.5538649,0.548213 1.2058898,0.953171 1.9511719,1.21289 h 0.00195 c 0.7485613,0.253273 1.5752526,0.378907 2.4804687,0.378907 0.4805189,0 0.9214279,-0.03829 1.3222659,-0.117188 0.401536,-0.0725 0.773063,-0.162953 1.115234,-0.269531 0.39985,-0.12773 0.723887,-0.24959 0.97461,-0.369141 0.246831,-0.115188 0.521892,-0.23917 0.824218,-0.371093 l 0.08008,-0.03516 v -0.08594 -2.050782 h -0.298829 l -0.03711,0.0332 c -0.590279,0.530709 -1.22125,0.92748 -1.894531,1.191406 -0.673059,0.263839 -1.394843,0.396484 -2.1679691,0.396484 -0.5577579,0 -1.0871902,-0.09434 -1.5898438,-0.28125 h -0.00195 C 7.445502,14.343694 7.0153032,14.052227 6.6425781,13.658203 6.2876127,13.282046 5.9919405,12.791775 5.7597656,12.181641 5.5352264,11.577523 5.421875,10.849704 5.421875,9.9960938 c 0,-0.81565 0.1026837,-1.5287544 0.3066406,-2.140625 C 5.9386774,7.2357609 6.2278143,6.7297875 6.59375,6.3320312 6.9731931,5.9205225 7.3999202,5.6205007 7.8769531,5.4296875 8.3608594,5.2329344 8.9052387,5.1347656 9.5136719,5.1347656 c 0.7456571,0 1.4426041,0.1259815 2.0937501,0.3789063 0.650669,0.252739 1.311253,0.6583495 1.980469,1.21875 l 0.03711,0.03125 h 0.304688 V 4.6054688 l -0.07422,-0.037109 C 13.043996,4.1626232 12.303092,3.877772 11.628906,3.7148438 10.963023,3.5525697 10.293208,3.4726563 9.6210938,3.4726562 Z m 0,0.2636719 c 0.6508002,0 1.2993062,0.078898 1.9453122,0.2363281 0.62648,0.1513993 1.331832,0.4273997 2.097656,0.8046876 V 6.4726562 C 13.008689,5.9369962 12.355357,5.5209243 11.703125,5.2675781 11.020334,5.0023615 10.289366,4.8691406 9.5136719,4.8691406 c -0.637311,0 -1.2170245,0.1052608 -1.7363281,0.3164063 C 7.2621913,5.3916078 6.8017185,5.7149826 6.3984375,6.1523438 6.0036976,6.5814088 5.6983009,7.1214465 5.4785156,7.7695312 v 0.00195 C 5.2635497,8.4163821 5.15625,9.1581012 5.15625,9.9960938 c 0,0.8772032 0.1169881,1.6357172 0.3554688,2.2773442 v 0.002 h 0.00195 c 0.2418693,0.63561 0.5518853,1.157886 0.9355469,1.564453 0.3985893,0.421366 0.8658178,0.73794 1.3964843,0.943359 h 0.00195 c 0.5330927,0.198492 1.0954906,0.296875 1.6835938,0.296875 0.8033462,0 1.5586952,-0.137711 2.2636722,-0.414062 0.667084,-0.261497 1.285653,-0.667244 1.86914,-1.173828 v 1.667968 c -0.270032,0.118487 -0.524691,0.232746 -0.75,0.337891 -0.234162,0.111759 -0.550161,0.231817 -0.943359,0.357422 -0.329853,0.102654 -0.690486,0.191023 -1.082031,0.261719 h -0.002 c -0.381416,0.07521 -0.806572,0.113281 -1.273438,0.113281 -0.8800163,0 -1.6773059,-0.1228 -2.3945312,-0.365235 h -0.00195 C 6.5075561,15.617819 5.891349,15.233637 5.3652344,14.712891 4.8513379,14.204347 4.4482961,13.559137 4.15625,12.769531 3.8650894,11.976928 3.71875,11.053175 3.71875,9.9960938 3.71875,8.9943219 3.8599959,8.1028359 4.140625,7.3203125 4.4216042,6.5368129 4.823605,5.8785361 5.3496094,5.3417969 5.8592356,4.8214417 6.4737322,4.4252658 7.1953125,4.1503906 7.9228844,3.8755301 8.7308156,3.7363281 9.6210938,3.7363281 Z"
           id="path2166" />
      </g>
      <g
         id="g2168"
         style="opacity:1">
        <path
           style="color:#000000;font-style:normal;font-variant:normal;font-weight:normal;font-stretch:normal;font-size:16.9333px;line-height:1.25;font-family:sans-serif;font-variant-ligatures:normal;font-variant-position:normal;font-variant-caps:normal;font-variant-numeric:normal;font-variant-alternates:normal;font-variant-east-asian:normal;font-feature-settings:normal;font-variation-settings:normal;text-indent:0;text-align:start;text-decoration:none;text-decoration-line:none;text-decoration-style:solid;text-decoration-color:#000000;letter-spacing:0.264583px;word-spacing:normal;text-transform:none;writing-mode:lr-tb;direction:ltr;text-orientation:mixed;dominant-baseline:auto;baseline-shift:baseline;text-anchor:start;white-space:normal;shape-padding:0;shape-margin:0;inline-size:0;clip-rule:nonzero;display:inline;overflow:visible;visibility:visible;isolation:auto;mix-blend-mode:normal;color-interpolation:sRGB;color-interpolation-filters:linearRGB;solid-color:#000000;solid-opacity:1;vector-effect:none;fill:#ff0000;fill-opacity:1;fill-rule:nonzero;stroke:none;stroke-width:0.264583;stroke-linecap:butt;stroke-linejoin:miter;stroke-miterlimit:4;stroke-dasharray:none;stroke-dashoffset:0;stroke-opacity:1;color-rendering:auto;image-rendering:auto;shape-rendering:auto;text-rendering:auto;enable-background:accumulate;stop-color:#000000;stop-opacity:1"
           d="m 24.124087,11.525349 c 0,1.504815 -0.38585,2.692681 -1.157549,3.563599 -0.7717,0.870919 -1.805227,1.306378 -3.10058,1.306378 -1.306378,0 -2.345417,-0.435459 -3.117117,-1.306378 -0.766187,-0.870918 -1.149281,-2.058784 -1.149281,-3.563599 0,-1.504815 0.383094,-2.6926817 1.149281,-3.5636002 0.7717,-0.8764305 1.810739,-1.3146458 3.117117,-1.3146458 1.295353,0 2.32888,0.4382153 3.10058,1.3146458 0.771699,0.8709185 1.157549,2.0587852 1.157549,3.5636002 z m -1.604033,0 c 0,-1.196135 -0.234266,-2.0835901 -0.702798,-2.662365 -0.468532,-0.584287 -1.118965,-0.8764305 -1.951298,-0.8764305 -0.843358,0 -1.499303,0.2921435 -1.967835,0.8764305 -0.46302,0.5787749 -0.69453,1.46623 -0.69453,2.662365 0,1.157549 0.234266,2.036736 0.702798,2.63756 0.468532,0.595311 1.121721,0.892966 1.959567,0.892966 0.826821,0 1.474498,-0.294899 1.94303,-0.884698 0.474044,-0.595311 0.711066,-1.477254 0.711066,-2.645828 z"
           id="path2170" />
        <path
           style="color:#000000;font-style:normal;font-variant:normal;font-weight:normal;font-stretch:normal;font-size:16.9333px;line-height:1.25;font-family:sans-serif;font-variant-ligatures:normal;font-variant-position:normal;font-variant-caps:normal;font-variant-numeric:normal;font-variant-alternates:normal;font-variant-east-asian:normal;font-feature-settings:normal;font-variation-settings:normal;text-indent:0;text-align:start;text-decoration:none;text-decoration-line:none;text-decoration-style:solid;text-decoration-color:#000000;letter-spacing:0.264583px;word-spacing:normal;text-transform:none;writing-mode:lr-tb;direction:ltr;text-orientation:mixed;dominant-baseline:auto;baseline-shift:baseline;text-anchor:start;white-space:normal;shape-padding:0;shape-margin:0;inline-size:0;clip-rule:nonzero;display:inline;overflow:visible;visibility:visible;isolation:auto;mix-blend-mode:normal;color-interpolation:sRGB;color-interpolation-filters:linearRGB;solid-color:#000000;solid-opacity:1;vector-effect:none;fill:#000000;fill-opacity:1;fill-rule:nonzero;stroke:none;stroke-width:0.264583;stroke-linecap:butt;stroke-linejoin:miter;stroke-miterlimit:4;stroke-dasharray:none;stroke-dashoffset:0;stroke-opacity:1;color-rendering:auto;image-rendering:auto;shape-rendering:auto;text-rendering:auto;enable-background:accumulate;stop-color:#000000;stop-opacity:1"
           d="m 19.865234,6.515625 c -1.335962,0 -2.418676,0.4551563 -3.214843,1.359375 -0.791146,0.8992885 -1.183594,2.1231232 -1.183594,3.650391 0,1.527267 0.392448,2.751102 1.183594,3.65039 0.796273,0.898652 1.879067,1.351563 3.214843,1.351563 1.325002,0 2.405106,-0.453145 3.201172,-1.351563 0.796781,-0.899224 1.189453,-2.122962 1.189453,-3.65039 0,-1.5267164 -0.39342,-2.7512823 -1.189453,-3.650391 C 22.270445,6.9710158 21.190424,6.515625 19.865234,6.515625 Z m 0,0.2636719 c 1.265518,0 2.254515,0.4206543 3.001954,1.2695312 0.746617,0.8426122 1.124999,1.9943619 1.125,3.4765629 -10e-7,1.4822 -0.378383,2.63395 -1.125,3.476562 -0.747334,0.84342 -1.736249,1.261719 -3.001954,1.261719 -1.27698,0 -2.270451,-0.418533 -3.017578,-1.261719 -0.741229,-0.842548 -1.115234,-1.9942 -1.115234,-3.476562 0,-1.482363 0.374005,-2.6340145 1.115234,-3.4765629 0.747233,-0.8486424 1.740785,-1.2695312 3.017578,-1.2695312 z m 0,1.0742187 c -0.873909,0 -1.577545,0.3112717 -2.070312,0.9257813 v 0.00195 c -0.490791,0.613489 -0.722656,1.5309361 -0.722656,2.7441411 0,1.175398 0.236602,2.085438 0.730468,2.71875 0.492234,0.625426 1.193322,0.943359 2.0625,0.943359 0.858278,0 1.554769,-0.314119 2.046875,-0.933594 0.50032,-0.628309 0.740235,-1.542053 0.740235,-2.728515 0,-1.213409 -0.235848,-2.1326788 -0.732422,-2.7460942 -0.49245,-0.6141145 -1.191399,-0.9257813 -2.054688,-0.9257813 z m 0,0.265625 c 0.801378,0 1.404996,0.2717124 1.84961,0.8261719 0.440489,0.5441344 0.673828,1.4012165 0.673828,2.5800785 0,1.150685 -0.235826,2.000186 -0.683594,2.5625 v 0.002 c -0.444957,0.560122 -1.044478,0.833984 -1.839844,0.833984 -0.806513,0 -1.410638,-0.276601 -1.855468,-0.841797 -0.443198,-0.568336 -0.673828,-1.41694 -0.673828,-2.55664 0,-1.179066 0.230766,-2.0360176 0.666015,-2.5800785 0.444297,-0.5540644 1.050474,-0.8261719 1.863281,-0.8261719 z"
           id="path2172" />
      </g>
      <g
         id="g2174"
         style="opacity:1">
        <path
           style="color:#000000;font-style:normal;font-variant:normal;font-weight:normal;font-stretch:normal;font-size:16.9333px;line-height:1.25;font-family:sans-serif;font-variant-ligatures:normal;font-variant-position:normal;font-variant-caps:normal;font-variant-numeric:normal;font-variant-alternates:normal;font-variant-east-asian:normal;font-feature-settings:normal;font-variation-settings:normal;text-indent:0;text-align:start;text-decoration:none;text-decoration-line:none;text-decoration-style:solid;text-decoration-color:#000000;letter-spacing:0.264583px;word-spacing:normal;text-transform:none;writing-mode:lr-tb;direction:ltr;text-orientation:mixed;dominant-baseline:auto;baseline-shift:baseline;text-anchor:start;white-space:normal;shape-padding:0;shape-margin:0;inline-size:0;clip-rule:nonzero;display:inline;overflow:visible;visibility:visible;isolation:auto;mix-blend-mode:normal;color-interpolation:sRGB;color-interpolation-filters:linearRGB;solid-color:#000000;solid-opacity:1;vector-effect:none;fill:#ff0000;fill-opacity:1;fill-rule:nonzero;stroke:none;stroke-width:0.264583;stroke-linecap:butt;stroke-linejoin:miter;stroke-miterlimit:4;stroke-dasharray:none;stroke-dashoffset:0;stroke-opacity:1;color-rendering:auto;image-rendering:auto;shape-rendering:auto;text-rendering:auto;enable-background:accumulate;stop-color:#000000;stop-opacity:1"
           d="m 32.557664,8.5984012 h -0.08268 c -0.23151,-0.055121 -0.457508,-0.093706 -0.677993,-0.115755 -0.214974,-0.027561 -0.471289,-0.041341 -0.768944,-0.041341 -0.479557,0 -0.942577,0.1074868 -1.38906,0.3224603 -0.446483,0.2094614 -0.87643,0.4823124 -1.289841,0.8185531 V 16.139011 H 26.79472 V 6.9034176 h 1.554424 v 1.3642551 c 0.61736,-0.4960928 1.160306,-0.8461138 1.628838,-1.050063 0.474044,-0.2094614 0.956356,-0.3141921 1.446937,-0.3141921 0.270095,0 0.465776,0.00827 0.587043,0.024805 0.121267,0.011024 0.303168,0.035829 0.545702,0.074414 z"
           id="path2176" />
        <path
           style="color:#000000;font-style:normal;font-variant:normal;font-weight:normal;font-stretch:normal;font-size:16.9333px;line-height:1.25;font-family:sans-serif;font-variant-ligatures:normal;font-variant-position:normal;font-variant-caps:normal;font-variant-numeric:normal;font-variant-alternates:normal;font-variant-east-asian:normal;font-feature-settings:normal;font-variation-settings:normal;text-indent:0;text-align:start;text-decoration:none;text-decoration-line:none;text-decoration-style:solid;text-decoration-color:#000000;letter-spacing:0.264583px;word-spacing:normal;text-transform:none;writing-mode:lr-tb;direction:ltr;text-orientation:mixed;dominant-baseline:auto;baseline-shift:baseline;text-anchor:start;white-space:normal;shape-padding:0;shape-margin:0;inline-size:0;clip-rule:nonzero;display:inline;overflow:visible;visibility:visible;isolation:auto;mix-blend-mode:normal;color-interpolation:sRGB;color-interpolation-filters:linearRGB;solid-color:#000000;solid-opacity:1;vector-effect:none;fill:#000000;fill-opacity:1;fill-rule:nonzero;stroke:none;stroke-width:0.264583;stroke-linecap:butt;stroke-linejoin:miter;stroke-miterlimit:4;stroke-dasharray:none;stroke-dashoffset:0;stroke-opacity:1;color-rendering:auto;image-rendering:auto;shape-rendering:auto;text-rendering:auto;enable-background:accumulate;stop-color:#000000;stop-opacity:1"
           d="m 26.662109,6.7714844 v 9.4999996 h 1.81836 V 9.65625 c 0.391826,-0.3133202 0.794906,-0.5764298 1.214843,-0.7734375 h 0.002 c 0.429803,-0.2069423 0.870289,-0.3085937 1.330078,-0.3085937 0.293572,0 0.544618,0.012481 0.751953,0.039062 h 0.002 l 0.002,0.00195 c 0.214186,0.021419 0.435939,0.057478 0.662109,0.1113281 l 0.01367,0.00391 h 0.230469 V 8.5976562 6.890625 L 32.578263,6.871094 C 32.336813,6.832681 32.156475,6.808598 32.029435,6.796875 h -0.0059 C 31.88932,6.778943 31.69603,6.771484 31.425878,6.771484 c -0.509408,0 -1.012477,0.1079388 -1.501953,0.3242187 -0.421895,0.1838172 -0.917637,0.5267389 -1.443359,0.9296875 V 6.7714844 Z m 0.265625,0.2636718 h 1.289063 v 1.5078126 l 0.214844,-0.171875 c 0.611522,-0.4914018 1.147572,-0.834481 1.599609,-1.03125 v -0.00195 c 0.458613,-0.2026429 0.922779,-0.3027344 1.394531,-0.3027344 0.267396,0 0.460121,0.00868 0.56836,0.023438 l 0.002,0.00195 H 32 c 0.09141,0.00831 0.254787,0.030809 0.425781,0.056641 V 8.4550781 C 32.218529,8.4088901 32.01392,8.3716672 31.814453,8.3515625 h -0.0039 c -0.221894,-0.028254 -0.482958,-0.042969 -0.783203,-0.042969 -0.499325,0 -0.982149,0.1129327 -1.445313,0.3359374 -0.456911,0.2143537 -0.895341,0.4934717 -1.316406,0.8359376 l -0.04883,0.039062 v 6.4863275 h -1.289063 z"
           id="path2178" />
      </g>
      <g
         id="g2180"
         style="opacity:1">
        <path
           style="color:#000000;font-style:normal;font-variant:normal;font-weight:normal;font-stretch:normal;font-size:16.9333px;line-height:1.25;font-family:sans-serif;font-variant-ligatures:normal;font-variant-position:normal;font-variant-caps:normal;font-variant-numeric:normal;font-variant-alternates:normal;font-variant-east-asian:normal;font-feature-settings:normal;font-variation-settings:normal;text-indent:0;text-align:start;text-decoration:none;text-decoration-line:none;text-decoration-style:solid;text-decoration-color:#000000;letter-spacing:0.264583px;word-spacing:normal;text-transform:none;writing-mode:lr-tb;direction:ltr;text-orientation:mixed;dominant-baseline:auto;baseline-shift:baseline;text-anchor:start;white-space:normal;shape-padding:0;shape-margin:0;inline-size:0;clip-rule:nonzero;display:inline;overflow:visible;visibility:visible;isolation:auto;mix-blend-mode:normal;color-interpolation:sRGB;color-interpolation-filters:linearRGB;solid-color:#000000;solid-opacity:1;vector-effect:none;fill:#ff0000;fill-opacity:1;fill-rule:nonzero;stroke:none;stroke-width:0.264583;stroke-linecap:butt;stroke-linejoin:miter;stroke-miterlimit:4;stroke-dasharray:none;stroke-dashoffset:0;stroke-opacity:1;color-rendering:auto;image-rendering:auto;shape-rendering:auto;text-rendering:auto;enable-background:accumulate;stop-color:#000000;stop-opacity:1"
           d="m 42.15706,11.525349 c 0,1.504815 -0.38585,2.692681 -1.15755,3.563599 -0.7717,0.870919 -1.805227,1.306378 -3.10058,1.306378 -1.306377,0 -2.345416,-0.435459 -3.117116,-1.306378 -0.766188,-0.870918 -1.149282,-2.058784 -1.149282,-3.563599 0,-1.504815 0.383094,-2.6926817 1.149282,-3.5636002 0.7717,-0.8764305 1.810739,-1.3146458 3.117116,-1.3146458 1.295353,0 2.32888,0.4382153 3.10058,1.3146458 0.7717,0.8709185 1.15755,2.0587852 1.15755,3.5636002 z m -1.604034,0 c 0,-1.196135 -0.234266,-2.0835901 -0.702798,-2.662365 -0.468532,-0.584287 -1.118965,-0.8764305 -1.951298,-0.8764305 -0.843358,0 -1.499303,0.2921435 -1.967835,0.8764305 -0.46302,0.5787749 -0.69453,1.46623 -0.69453,2.662365 0,1.157549 0.234266,2.036736 0.702799,2.63756 0.468532,0.595311 1.121721,0.892966 1.959566,0.892966 0.826821,0 1.474498,-0.294899 1.94303,-0.884698 0.474044,-0.595311 0.711066,-1.477254 0.711066,-2.645828 z"
           id="path2182" />
        <path
           style="color:#000000;font-style:normal;font-variant:normal;font-weight:normal;font-stretch:normal;font-size:16.9333px;line-height:1.25;font-family:sans-serif;font-variant-ligatures:normal;font-variant-position:normal;font-variant-caps:normal;font-variant-numeric:normal;font-variant-alternates:normal;font-variant-east-asian:normal;font-feature-settings:normal;font-variation-settings:normal;text-indent:0;text-align:start;text-decoration:none;text-decoration-line:none;text-decoration-style:solid;text-decoration-color:#000000;letter-spacing:0.264583px;word-spacing:normal;text-transform:none;writing-mode:lr-tb;direction:ltr;text-orientation:mixed;dominant-baseline:auto;baseline-shift:baseline;text-anchor:start;white-space:normal;shape-padding:0;shape-margin:0;inline-size:0;clip-rule:nonzero;display:inline;overflow:visible;visibility:visible;isolation:auto;mix-blend-mode:normal;color-interpolation:sRGB;color-interpolation-filters:linearRGB;solid-color:#000000;solid-opacity:1;vector-effect:none;fill:#000000;fill-opacity:1;fill-rule:nonzero;stroke:none;stroke-width:0.264583;stroke-linecap:butt;stroke-linejoin:miter;stroke-miterlimit:4;stroke-dasharray:none;stroke-dashoffset:0;stroke-opacity:1;color-rendering:auto;image-rendering:auto;shape-rendering:auto;text-rendering:auto;enable-background:accumulate;stop-color:#000000;stop-opacity:1"
           d="m 37.898438,6.515625 c -1.335962,0 -2.42063,0.4551563 -3.216797,1.359375 C 33.890494,8.7742885 33.5,9.9981232 33.5,11.525391 c 0,1.527267 0.390494,2.751102 1.181641,3.65039 h 0.002 c 0.796273,0.898652 1.879068,1.351563 3.214844,1.351563 1.325001,0 2.403152,-0.453145 3.199218,-1.351563 0.796782,-0.899224 1.191406,-2.122962 1.191406,-3.65039 0,-1.5263169 -0.393838,-2.7513475 -1.189453,-3.650391 l -0.002,-0.00195 C 40.301877,6.9704791 39.222584,6.515625 37.898438,6.515625 Z m 0,0.2636719 c 1.265517,0 2.254514,0.4206543 3.001953,1.2695312 0.746618,0.8426122 1.125,1.9943619 1.125,3.4765629 0,1.4822 -0.378382,2.63395 -1.125,3.476562 -0.747334,0.84342 -1.736248,1.261719 -3.001953,1.261719 -1.27698,0 -2.270452,-0.418533 -3.017579,-1.261719 -0.741229,-0.842548 -1.115234,-1.9942 -1.115234,-3.476562 0,-1.482363 0.374005,-2.6340145 1.115234,-3.4765629 0.747233,-0.8486424 1.740785,-1.2695312 3.017579,-1.2695312 z m 0,1.0742187 c -0.873909,0 -1.577546,0.3112717 -2.070313,0.9257813 v 0.00195 c -0.490791,0.613489 -0.724609,1.5309361 -0.724609,2.7441411 0,1.175398 0.238554,2.085438 0.732422,2.71875 0.492233,0.625426 1.193322,0.943359 2.0625,0.943359 0.858277,0 1.554768,-0.314119 2.046874,-0.933594 0.50032,-0.628309 0.740235,-1.542053 0.740235,-2.728515 0,-1.213409 -0.235848,-2.1326788 -0.732422,-2.7460942 -0.49245,-0.6141145 -1.191399,-0.9257813 -2.054687,-0.9257813 z m 0,0.265625 c 0.801377,0 1.403042,0.2717124 1.847656,0.8261719 h 0.002 c 0.44049,0.5441344 0.671875,1.4012165 0.671875,2.5800785 0,1.150685 -0.233873,2.000186 -0.681641,2.5625 v 0.002 c -0.444957,0.560122 -1.044478,0.833984 -1.839843,0.833984 -0.806514,0 -1.410639,-0.276601 -1.855469,-0.841797 -0.443198,-0.568336 -0.673828,-1.41694 -0.673828,-2.55664 0,-1.179066 0.230766,-2.0360176 0.666015,-2.5800785 0.444297,-0.5540644 1.050474,-0.8261719 1.863282,-0.8261719 z"
           id="path2184" />
      </g>
      <g
         id="g2186"
         style="opacity:1">
        <path
           style="color:#000000;font-style:normal;font-variant:normal;font-weight:normal;font-stretch:normal;font-size:16.9333px;line-height:1.25;font-family:sans-serif;font-variant-ligatures:normal;font-variant-position:normal;font-variant-caps:normal;font-variant-numeric:normal;font-variant-alternates:normal;font-variant-east-asian:normal;font-feature-settings:normal;font-variation-settings:normal;text-indent:0;text-align:start;text-decoration:none;text-decoration-line:none;text-decoration-style:solid;text-decoration-color:#000000;letter-spacing:0.264583px;word-spacing:normal;text-transform:none;writing-mode:lr-tb;direction:ltr;text-orientation:mixed;dominant-baseline:auto;baseline-shift:baseline;text-anchor:start;white-space:normal;shape-padding:0;shape-margin:0;inline-size:0;clip-rule:nonzero;display:inline;overflow:visible;visibility:visible;isolation:auto;mix-blend-mode:normal;color-interpolation:sRGB;color-interpolation-filters:linearRGB;solid-color:#000000;solid-opacity:1;vector-effect:none;fill:#ff0000;fill-opacity:1;fill-rule:nonzero;stroke:none;stroke-width:0.264583;stroke-linecap:butt;stroke-linejoin:miter;stroke-miterlimit:4;stroke-dasharray:none;stroke-dashoffset:0;stroke-opacity:1;color-rendering:auto;image-rendering:auto;shape-rendering:auto;text-rendering:auto;enable-background:accumulate;stop-color:#000000;stop-opacity:1"
           d="m 52.550203,16.139011 h -1.554424 v -5.258583 c 0,-0.424435 -0.0248,-0.821309 -0.07441,-1.1906227 -0.04961,-0.3748257 -0.140557,-0.6669692 -0.272851,-0.8764305 -0.137803,-0.23151 -0.33624,-0.4023864 -0.595311,-0.5126292 -0.259071,-0.115755 -0.595311,-0.1736325 -1.008722,-0.1736325 -0.424435,0 -0.868163,0.1047307 -1.331182,0.3141921 -0.46302,0.2094614 -0.906748,0.4768003 -1.331183,0.8020166 V 16.139011 H 44.827692 V 6.9034176 h 1.554424 V 7.928676 C 46.867185,7.5262896 47.36879,7.2120975 47.886931,6.9860997 48.405072,6.7601019 48.936994,6.647103 49.482696,6.647103 c 0.997698,0 1.758374,0.3004117 2.282027,0.9012352 0.523653,0.6008235 0.78548,1.4662297 0.78548,2.5962188 z"
           id="path2188" />
        <path
           style="color:#000000;font-style:normal;font-variant:normal;font-weight:normal;font-stretch:normal;font-size:16.9333px;line-height:1.25;font-family:sans-serif;font-variant-ligatures:normal;font-variant-position:normal;font-variant-caps:normal;font-variant-numeric:normal;font-variant-alternates:normal;font-variant-east-asian:normal;font-feature-settings:normal;font-variation-settings:normal;text-indent:0;text-align:start;text-decoration:none;text-decoration-line:none;text-decoration-style:solid;text-decoration-color:#000000;letter-spacing:0.264583px;word-spacing:normal;text-transform:none;writing-mode:lr-tb;direction:ltr;text-orientation:mixed;dominant-baseline:auto;baseline-shift:baseline;text-anchor:start;white-space:normal;shape-padding:0;shape-margin:0;inline-size:0;clip-rule:nonzero;display:inline;overflow:visible;visibility:visible;isolation:auto;mix-blend-mode:normal;color-interpolation:sRGB;color-interpolation-filters:linearRGB;solid-color:#000000;solid-opacity:1;vector-effect:none;fill:#000000;fill-opacity:1;fill-rule:nonzero;stroke:none;stroke-width:0.264583;stroke-linecap:butt;stroke-linejoin:miter;stroke-miterlimit:4;stroke-dasharray:none;stroke-dashoffset:0;stroke-opacity:1;color-rendering:auto;image-rendering:auto;shape-rendering:auto;text-rendering:auto;enable-background:accumulate;stop-color:#000000;stop-opacity:1"
           d="m 49.482422,6.515625 c -0.563965,0 -1.114696,0.1168074 -1.648438,0.3496094 -0.455922,0.1988599 -0.891769,0.4958012 -1.320312,0.8261718 V 6.7714844 h -1.81836 v 9.4999996 h 1.81836 V 9.3164062 C 46.915592,9.0138081 47.331908,8.759589 47.767578,8.5625 c 0.449189,-0.2032047 0.874671,-0.3027344 1.277344,-0.3027344 0.401063,0 0.719936,0.057046 0.955078,0.1621094 h 0.002 c 0.236147,0.1004878 0.409316,0.2508538 0.533203,0.4589844 v 0.00195 l 0.002,0.00195 c 0.117256,0.185651 0.205886,0.4594264 0.253907,0.8222656 0.04872,0.362687 0.07227,0.754548 0.07227,1.173828 v 5.390625 h 1.81836 v -0.132812 -5.994141 c 0,-1.1504243 -0.265763,-2.0518026 -0.816407,-2.6835937 C 51.314239,6.8287425 50.506676,6.515625 49.482422,6.515625 Z m 0,0.2636719 c 0.971142,0 1.685329,0.2860168 2.18164,0.8554687 0.496664,0.5698558 0.753907,1.4002118 0.753907,2.5097654 v 5.861328 h -1.289063 v -5.125 c 0,-0.429588 -0.02567,-0.833043 -0.07617,-1.208984 -0.05097,-0.3851006 -0.144808,-0.6928689 -0.291015,-0.9257812 -2.59e-4,-4.348e-4 -0.0017,4.343e-4 -0.002,0 C 50.60832,8.4922883 50.388256,8.2995201 50.107422,8.1796875 h -0.002 c -0.2827,-0.1259798 -0.635502,-0.1855469 -1.0605,-0.1855469 -0.446198,0 -0.909869,0.1104538 -1.386719,0.3261719 -0.472615,0.2138021 -0.925435,0.4873571 -1.357422,0.8183594 L 46.25,9.1777344 V 16.005859 H 44.960938 V 7.0351562 H 46.25 V 8.2109375 L 46.466797,8.03125 c 0.476621,-0.3953785 0.967021,-0.7032851 1.472656,-0.9238281 0.502542,-0.2191936 1.015529,-0.328125 1.542969,-0.328125 z"
           id="path2190" />
      </g>
      <g
         id="g2192"
         style="opacity:1">
        <path
           style="color:#000000;font-style:normal;font-variant:normal;font-weight:normal;font-stretch:normal;font-size:16.9333px;line-height:1.25;font-family:sans-serif;font-variant-ligatures:normal;font-variant-position:normal;font-variant-caps:normal;font-variant-numeric:normal;font-variant-alternates:normal;font-variant-east-asian:normal;font-feature-settings:normal;font-variation-settings:normal;text-indent:0;text-align:start;text-decoration:none;text-decoration-line:none;text-decoration-style:solid;text-decoration-color:#000000;letter-spacing:0.264583px;word-spacing:normal;text-transform:none;writing-mode:lr-tb;direction:ltr;text-orientation:mixed;dominant-baseline:auto;baseline-shift:baseline;text-anchor:start;white-space:normal;shape-padding:0;shape-margin:0;inline-size:0;clip-rule:nonzero;display:inline;overflow:visible;visibility:visible;isolation:auto;mix-blend-mode:normal;color-interpolation:sRGB;color-interpolation-filters:linearRGB;solid-color:#000000;solid-opacity:1;vector-effect:none;fill:#ff0000;fill-opacity:1;fill-rule:nonzero;stroke:none;stroke-width:0.264583;stroke-linecap:butt;stroke-linejoin:miter;stroke-miterlimit:4;stroke-dasharray:none;stroke-dashoffset:0;stroke-opacity:1;color-rendering:auto;image-rendering:auto;shape-rendering:auto;text-rendering:auto;enable-background:accumulate;stop-color:#000000;stop-opacity:1"
           d="m 63.29888,15.088948 c 0,1.565449 -0.355533,2.71473 -1.0666,3.447845 -0.711066,0.733115 -1.805226,1.099672 -3.28248,1.099672 -0.490581,0 -0.970137,-0.03583 -1.438669,-0.107486 -0.46302,-0.06615 -0.920528,-0.162609 -1.372524,-0.289388 v -1.587497 h 0.08268 c 0.253559,0.09922 0.655945,0.220486 1.207159,0.363802 0.551215,0.148827 1.102429,0.223241 1.653643,0.223241 0.529165,0 0.967381,-0.06339 1.314646,-0.190168 0.347265,-0.126779 0.61736,-0.303168 0.810285,-0.529166 0.192925,-0.214973 0.330728,-0.474044 0.41341,-0.777212 0.08268,-0.303168 0.124024,-0.642165 0.124024,-1.01699 v -0.843358 c -0.468533,0.374825 -0.917772,0.655945 -1.347719,0.843358 -0.424435,0.181901 -0.967381,0.272851 -1.628838,0.272851 -1.102429,0 -1.978859,-0.396874 -2.629292,-1.190623 -0.644921,-0.799261 -0.967381,-1.923738 -0.967381,-3.373431 0,-0.793748 0.110243,-1.4772535 0.330729,-2.0505166 0.225998,-0.5787749 0.531922,-1.0776237 0.917771,-1.4965465 0.358289,-0.3913621 0.793749,-0.6945299 1.306378,-0.9095034 0.512629,-0.2204857 1.022502,-0.3307285 1.529619,-0.3307285 0.534678,0 0.981162,0.055121 1.339451,0.1653642 0.363801,0.1047307 0.746895,0.2673389 1.149282,0.4878246 l 0.09922,-0.3968742 H 63.29888 Z M 61.744456,13.60067 V 8.5653284 C 61.331045,8.3779155 60.945195,8.2456241 60.586906,8.1684541 60.234129,8.085772 59.881351,8.044431 59.528574,8.044431 c -0.854382,0 -1.526863,0.2866314 -2.017443,0.8598941 -0.490581,0.5732627 -0.735871,1.4055959 -0.735871,2.4969999 0,1.036283 0.181901,1.821763 0.545702,2.356441 0.363801,0.534678 0.967381,0.802017 1.810738,0.802017 0.451996,0 0.903992,-0.08544 1.355987,-0.256315 0.457508,-0.176389 0.876431,-0.410655 1.256769,-0.702798 z"
           id="path2194" />
        <path
           style="color:#000000;font-style:normal;font-variant:normal;font-weight:normal;font-stretch:normal;font-size:16.9333px;line-height:1.25;font-family:sans-serif;font-variant-ligatures:normal;font-variant-position:normal;font-variant-caps:normal;font-variant-numeric:normal;font-variant-alternates:normal;font-variant-east-asian:normal;font-feature-settings:normal;font-variation-settings:normal;text-indent:0;text-align:start;text-decoration:none;text-decoration-line:none;text-decoration-style:solid;text-decoration-color:#000000;letter-spacing:0.264583px;word-spacing:normal;text-transform:none;writing-mode:lr-tb;direction:ltr;text-orientation:mixed;dominant-baseline:auto;baseline-shift:baseline;text-anchor:start;white-space:normal;shape-padding:0;shape-margin:0;inline-size:0;clip-rule:nonzero;display:inline;overflow:visible;visibility:visible;isolation:auto;mix-blend-mode:normal;color-interpolation:sRGB;color-interpolation-filters:linearRGB;solid-color:#000000;solid-opacity:1;vector-effect:none;fill:#000000;fill-opacity:1;fill-rule:nonzero;stroke:none;stroke-width:0.264583;stroke-linecap:butt;stroke-linejoin:miter;stroke-miterlimit:4;stroke-dasharray:none;stroke-dashoffset:0;stroke-opacity:1;color-rendering:auto;image-rendering:auto;shape-rendering:auto;text-rendering:auto;enable-background:accumulate;stop-color:#000000;stop-opacity:1"
           d="m 59.255859,6.515625 c -0.526289,0 -1.054856,0.1131021 -1.582031,0.3398438 -0.528234,0.2217598 -0.980561,0.5381118 -1.351562,0.9433593 -0.397178,0.4315393 -0.71223,0.9451932 -0.94336,1.5371094 -0.22783,0.5923569 -0.339844,1.2916595 -0.339844,2.0976565 0,1.46931 0.326628,2.62735 0.996094,3.457031 l 0.002,0.002 c 0.673657,0.82209 1.59629,1.238281 2.730469,1.238281 0.673584,0 1.234335,-0.0915 1.681641,-0.283203 0.374184,-0.163106 0.765265,-0.430026 1.162109,-0.726562 v 0.605468 c 0,0.365098 -0.0401,0.690653 -0.11914,0.980469 -0.0779,0.285627 -0.204261,0.525651 -0.382813,0.72461 l -0.002,0.002 h -0.002 c -0.175408,0.205478 -0.423016,0.369433 -0.753907,0.490234 -0.326931,0.119355 -0.75093,0.183594 -1.269531,0.183594 -0.539308,0 -1.078639,-0.07281 -1.61914,-0.21875 h -0.002 c -0.5488,-0.142688 -0.948013,-0.264134 -1.191407,-0.359375 l -0.02344,-0.0098 h -0.240235 v 1.820313 l 0.09766,0.02734 c 0.456929,0.128162 0.918597,0.226008 1.386718,0.292968 0.475353,0.0727 0.961963,0.109375 1.458985,0.109375 1.499138,0 2.635963,-0.374645 3.378906,-1.140625 0.743831,-0.766894 1.103516,-1.953584 1.103516,-3.539062 V 6.7714844 H 61.74014 L 61.65225,7.1171875 C 61.30135,6.9359486 60.956121,6.7791827 60.630859,6.6855469 60.25548,6.5705219 59.798112,6.515625 59.255859,6.515625 Z m 0,0.2636719 c 0.525586,0 0.960171,0.055353 1.300782,0.1601562 h 0.002 c 0.352545,0.1014902 0.727653,0.2599088 1.123047,0.4765625 l 0.15039,0.082031 0.115235,-0.4628907 h 1.21875 v 8.0546881 c 0,1.545418 -0.350995,2.656134 -1.029297,3.355468 -0.679189,0.70025 -1.73213,1.058594 -3.1875,1.058594 -0.48414,0 -0.956258,-0.03485 -1.417969,-0.105468 h -0.002 c -0.424273,-0.06061 -0.842868,-0.153453 -1.257813,-0.265626 v -1.328124 c 0.26343,0.09766 0.61368,0.207407 1.123047,0.339843 0.561928,0.15172 1.12438,0.226563 1.6875,0.226563 0.53973,0 0.991776,-0.06306 1.359375,-0.197266 0.362118,-0.132202 0.653044,-0.321405 0.863282,-0.566406 0.207297,-0.230989 0.355893,-0.509369 0.443359,-0.830078 0.08632,-0.31652 0.128906,-0.666229 0.128906,-1.050782 v -1.11914 l -0.214844,0.171875 c -0.461517,0.369213 -0.901891,0.64268 -1.318359,0.824219 -0.401565,0.172099 -0.926842,0.261718 -1.576172,0.261718 -1.070087,0 -1.898306,-0.37607 -2.52539,-1.140625 -0.620375,-0.76884 -0.939454,-1.860939 -0.939454,-3.291015 0,-0.781499 0.109124,-1.4477845 0.322266,-2.0019537 0.220653,-0.565087 0.518577,-1.0490189 0.892578,-1.4550781 0.345217,-0.3770826 0.763403,-0.668801 1.259766,-0.8769531 h 0.002 c 0.498084,-0.2142297 0.988618,-0.3203125 1.476562,-0.3203125 z m 0.273438,1.1328125 c -0.88397,0 -1.603894,0.3041629 -2.119141,0.90625 -0.517546,0.6047728 -0.767578,1.4708056 -0.767578,2.5820316 0,1.051763 0.182197,1.864098 0.56836,2.43164 0.390546,0.573986 1.048607,0.859375 1.919921,0.859375 0.468667,0 0.938658,-0.08764 1.404297,-0.263672 0.468901,-0.180781 0.898603,-0.422738 1.289063,-0.722656 l 0.05273,-0.03906 v -0.06445 -5.1210932 l -0.07813,-0.035156 c -0.419661,-0.1902462 -0.812513,-0.3265963 -1.18164,-0.40625 h -0.002 C 60.253557,7.9544449 59.891766,7.9121094 59.529297,7.9121094 Z m 0,0.2636718 c 0.342442,0 0.684105,0.040647 1.027344,0.1210938 h 0.002 c 0.322961,0.069561 0.678111,0.1969069 1.052734,0.3613281 v 4.8671879 c -0.357359,0.26749 -0.744948,0.489698 -1.171875,0.654297 -0.437713,0.165239 -0.873895,0.248046 -1.308594,0.248046 -0.8154,0 -1.364116,-0.24877 -1.701171,-0.74414 -0.341441,-0.501814 -0.521485,-1.262402 -0.521485,-2.283203 0,-1.071583 0.23951,-1.8684039 0.703125,-2.4101566 0.465913,-0.5444384 1.093175,-0.8144531 1.917969,-0.8144532 z"
           id="path2196" />
      </g>
      <g
         id="g2198"
         style="opacity:1">
        <path
           style="color:#000000;font-style:normal;font-variant:normal;font-weight:normal;font-stretch:normal;font-size:16.9333px;line-height:1.25;font-family:sans-serif;font-variant-ligatures:normal;font-variant-position:normal;font-variant-caps:normal;font-variant-numeric:normal;font-variant-alternates:normal;font-variant-east-asian:normal;font-feature-settings:normal;font-variation-settings:normal;text-indent:0;text-align:start;text-decoration:none;text-decoration-line:none;text-decoration-style:solid;text-decoration-color:#000000;letter-spacing:0.264583px;word-spacing:normal;text-transform:none;writing-mode:lr-tb;direction:ltr;text-orientation:mixed;dominant-baseline:auto;baseline-shift:baseline;text-anchor:start;white-space:normal;shape-padding:0;shape-margin:0;inline-size:0;clip-rule:nonzero;display:inline;overflow:visible;visibility:visible;isolation:auto;mix-blend-mode:normal;color-interpolation:sRGB;color-interpolation-filters:linearRGB;solid-color:#000000;solid-opacity:1;vector-effect:none;fill:#ff0000;fill-opacity:1;fill-rule:nonzero;stroke:none;stroke-width:0.264583;stroke-linecap:butt;stroke-linejoin:miter;stroke-miterlimit:4;stroke-dasharray:none;stroke-dashoffset:0;stroke-opacity:1;color-rendering:auto;image-rendering:auto;shape-rendering:auto;text-rendering:auto;enable-background:accumulate;stop-color:#000000;stop-opacity:1"
           d="m 73.799511,16.139011 h -1.546156 v -0.983917 c -0.137804,0.09371 -0.325217,0.225998 -0.562239,0.396874 -0.23151,0.165365 -0.457508,0.297656 -0.677993,0.396874 -0.259071,0.126779 -0.556726,0.23151 -0.892967,0.314193 -0.336241,0.08819 -0.730359,0.132291 -1.182355,0.132291 -0.832333,0 -1.537887,-0.275607 -2.116662,-0.826821 -0.578775,-0.551215 -0.868162,-1.254013 -0.868162,-2.108395 0,-0.700042 0.148828,-1.265036 0.446483,-1.694983 0.303168,-0.435459 0.733115,-0.777212 1.289841,-1.025259 0.562239,-0.248046 1.237476,-0.416166 2.025712,-0.504361 0.788237,-0.08819 1.634351,-0.15434 2.538342,-0.198437 V 9.7972921 c 0,-0.3527771 -0.06339,-0.6449206 -0.190169,-0.8764306 C 71.941919,8.6893516 71.76553,8.5074509 71.53402,8.3751595 71.313535,8.2483802 71.048952,8.162942 70.740272,8.1188449 c -0.30868,-0.044097 -0.63114,-0.066146 -0.967381,-0.066146 -0.407899,0 -0.86265,0.055121 -1.364255,0.1653642 -0.501605,0.1047307 -1.019747,0.2590707 -1.554424,0.4630199 H 66.77153 V 7.1018547 c 0.303167,-0.082682 0.741382,-0.1736325 1.314645,-0.272851 0.573263,-0.099219 1.138258,-0.1488279 1.694984,-0.1488279 0.650433,0 1.215427,0.055121 1.694984,0.1653643 0.485069,0.1047307 0.903991,0.2866313 1.256768,0.545702 0.347265,0.2535585 0.611848,0.581531 0.793749,0.9839174 0.181901,0.4023863 0.272851,0.9012352 0.272851,1.4965465 z m -1.546156,-2.273758 v -2.571414 c -0.474045,0.02756 -1.033527,0.0689 -1.678447,0.124023 -0.639409,0.05512 -1.146526,0.135046 -1.521352,0.239778 -0.446483,0.126779 -0.807528,0.325216 -1.083135,0.595311 -0.275607,0.264583 -0.413411,0.631141 -0.413411,1.099673 0,0.529165 0.159852,0.928796 0.479556,1.198891 0.319705,0.264583 0.807529,0.396874 1.463474,0.396874 0.545702,0 1.044551,-0.104731 1.496546,-0.314192 0.451996,-0.214974 0.870919,-0.471289 1.256769,-0.768944 z"
           id="path2200" />
        <path
           style="color:#000000;font-style:normal;font-variant:normal;font-weight:normal;font-stretch:normal;font-size:16.9333px;line-height:1.25;font-family:sans-serif;font-variant-ligatures:normal;font-variant-position:normal;font-variant-caps:normal;font-variant-numeric:normal;font-variant-alternates:normal;font-variant-east-asian:normal;font-feature-settings:normal;font-variation-settings:normal;text-indent:0;text-align:start;text-decoration:none;text-decoration-line:none;text-decoration-style:solid;text-decoration-color:#000000;letter-spacing:0.264583px;word-spacing:normal;text-transform:none;writing-mode:lr-tb;direction:ltr;text-orientation:mixed;dominant-baseline:auto;baseline-shift:baseline;text-anchor:start;white-space:normal;shape-padding:0;shape-margin:0;inline-size:0;clip-rule:nonzero;display:inline;overflow:visible;visibility:visible;isolation:auto;mix-blend-mode:normal;color-interpolation:sRGB;color-interpolation-filters:linearRGB;solid-color:#000000;solid-opacity:1;vector-effect:none;fill:#000000;fill-opacity:1;fill-rule:nonzero;stroke:none;stroke-width:0.264583;stroke-linecap:butt;stroke-linejoin:miter;stroke-miterlimit:4;stroke-dasharray:none;stroke-dashoffset:0;stroke-opacity:1;color-rendering:auto;image-rendering:auto;shape-rendering:auto;text-rendering:auto;enable-background:accumulate;stop-color:#000000;stop-opacity:1"
           d="m 69.78125,6.5488281 c -0.564585,0 -1.136443,0.049945 -1.716797,0.1503907 -0.575486,0.099603 -1.017496,0.1906735 -1.328125,0.2753906 L 66.638672,7 v 1.8125 h 0.240234 l 0.02148,-0.00781 c 0.528851,-0.201727 1.041163,-0.3538899 1.535156,-0.4570313 h 0.002 c 0.494262,-0.108629 0.939957,-0.1621093 1.335938,-0.1621093 0.330457,0 0.645242,0.021307 0.947265,0.064453 0.295475,0.042211 0.544943,0.1234494 0.748047,0.2402344 0.211287,0.1207351 0.366545,0.282155 0.476562,0.4921875 h 0.002 v 0.00195 c 0.113182,0.2066809 0.173828,0.4755704 0.173828,0.8125 v 0.1171875 c -0.856511,0.04411 -1.667422,0.1052572 -2.419922,0.1894532 -0.798402,0.08933 -1.486624,0.2607 -2.064453,0.515625 h -0.002 c -0.57486,0.256126 -1.025616,0.613356 -1.34375,1.070312 -0.316782,0.457574 -0.470704,1.052693 -0.470704,1.771485 0,0.884254 0.306664,1.628369 0.910157,2.203124 0.601708,0.573056 1.345494,0.863282 2.207031,0.863282 0.45987,0 0.864914,-0.04513 1.214844,-0.136719 0.342935,-0.08433 0.647345,-0.189052 0.916015,-0.320313 l 0.002,-0.002 c 0.229032,-0.103273 0.460559,-0.239126 0.697266,-0.408203 0.149118,-0.107503 0.244184,-0.173408 0.353516,-0.25 v 0.861328 h 1.810547 V 16.138672 9.8710938 c 0,-0.6087855 -0.09317,-1.1260813 -0.285157,-1.5507813 C 73.455864,7.8986364 73.175845,7.5518812 72.810547,7.2851562 72.441774,7.0143381 72.005669,6.8249481 71.505859,6.7167969 h -0.002 C 71.01199,6.6038843 70.438419,6.5488281 69.78125,6.5488281 Z m 0,0.2636719 c 0.642959,0 1.199186,0.054792 1.666016,0.1621094 0.469539,0.1013778 0.870715,0.2764551 1.207031,0.5234375 0.329233,0.240392 0.578772,0.5485439 0.751953,0.9316406 0.171814,0.3800726 0.261719,0.859569 0.261719,1.4414063 v 6.1347652 h -1.283203 v -1.101562 l -0.205078,0.140625 c -0.13956,0.0949 -0.328825,0.229111 -0.566407,0.40039 v -0.002 c -0.225529,0.161093 -0.443091,0.289724 -0.654297,0.384766 h -0.002 l -0.002,0.002 c -0.248973,0.121838 -0.538521,0.223868 -0.867187,0.304688 h -0.002 c -0.32217,0.0845 -0.705046,0.128906 -1.148438,0.128906 -0.80313,0 -1.46955,-0.261643 -2.025391,-0.791016 -0.554056,-0.527673 -0.826171,-1.187209 -0.826171,-2.011718 0,-0.681293 0.143346,-1.218775 0.421874,-1.621094 0.288202,-0.413963 0.695783,-0.738549 1.234376,-0.978516 0.546647,-0.241168 1.210211,-0.407083 1.988281,-0.49414 0.785104,-0.08784 1.627723,-0.153287 2.529297,-0.197266 l 0.125,-0.0078 V 9.796875 c 0,-0.367893 -0.06527,-0.6814372 -0.205078,-0.9375 V 8.857425 C 72.047178,8.6050303 71.850919,8.4033712 71.599609,8.2597656 71.361743,8.1229921 71.081651,8.0342649 70.759766,7.9882812 c -0.315338,-0.045048 -0.644305,-0.068359 -0.986328,-0.068359 -0.419817,0 -0.883631,0.056112 -1.392579,0.1679687 -0.477609,0.099721 -0.971436,0.2518733 -1.476562,0.4394532 V 7.2089844 c 0.29293,-0.075986 0.676787,-0.158565 1.205078,-0.25 C 68.675547,6.8609931 69.232383,6.8125 69.78125,6.8125 Z m 2.603516,4.341797 -0.138672,0.0078 c -0.475676,0.02766 -1.035845,0.06785 -1.681641,0.123047 -0.644348,0.05555 -1.159065,0.135781 -1.546875,0.244141 v 0.002 c -0.46274,0.131396 -0.845103,0.339692 -1.138672,0.626953 -0.30375,0.2916 -0.455078,0.700841 -0.455078,1.195313 0,0.555807 0.175106,1.001247 0.527344,1.298828 l 0.002,0.002 c 0.353941,0.292916 0.873143,0.425781 1.546875,0.425781 0.562628,0 1.082311,-0.108171 1.552734,-0.326172 0.460197,-0.218874 0.887815,-0.479696 1.28125,-0.783203 l 0.05078,-0.04101 v -0.06445 z m -0.263672,0.28125 v 2.355469 c -0.364525,0.276034 -0.755138,0.520537 -1.179688,0.722656 -0.433567,0.200922 -0.91263,0.302734 -1.441406,0.302734 -0.638158,0 -1.093437,-0.130938 -1.378906,-0.367187 -0.286292,-0.242575 -0.431641,-0.593954 -0.431641,-1.095703 0,-0.442593 0.125582,-0.768293 0.373047,-1.00586 0.257491,-0.252341 0.597727,-0.44051 1.027344,-0.5625 0.361841,-0.101104 0.861624,-0.181634 1.496094,-0.236328 0.590013,-0.05043 1.089159,-0.086 1.535156,-0.113281 z"
           id="path2202" />
      </g>
      <g
         id="g2204"
         style="opacity:1">
        <path
           style="color:#000000;font-style:normal;font-variant:normal;font-weight:normal;font-stretch:normal;font-size:16.9333px;line-height:1.25;font-family:sans-serif;font-variant-ligatures:normal;font-variant-position:normal;font-variant-caps:normal;font-variant-numeric:normal;font-variant-alternates:normal;font-variant-east-asian:normal;font-feature-settings:normal;font-variation-settings:normal;text-indent:0;text-align:start;text-decoration:none;text-decoration-line:none;text-decoration-style:solid;text-decoration-color:#000000;letter-spacing:0.264583px;word-spacing:normal;text-transform:none;writing-mode:lr-tb;direction:ltr;text-orientation:mixed;dominant-baseline:auto;baseline-shift:baseline;text-anchor:start;white-space:normal;shape-padding:0;shape-margin:0;inline-size:0;clip-rule:nonzero;display:inline;overflow:visible;visibility:visible;isolation:auto;mix-blend-mode:normal;color-interpolation:sRGB;color-interpolation-filters:linearRGB;solid-color:#000000;solid-opacity:1;vector-effect:none;fill:#ff0000;fill-opacity:1;fill-rule:nonzero;stroke:none;stroke-width:0.264583;stroke-linecap:butt;stroke-linejoin:miter;stroke-miterlimit:4;stroke-dasharray:none;stroke-dashoffset:0;stroke-opacity:1;color-rendering:auto;image-rendering:auto;shape-rendering:auto;text-rendering:auto;enable-background:accumulate;stop-color:#000000;stop-opacity:1"
           d="M 92.179747,5.2828478 H 87.781058 V 16.139011 H 86.143951 V 5.2828478 H 81.745262 V 3.8276424 h 10.434485 z"
           id="path2206" />
        <path
           style="color:#000000;font-style:normal;font-variant:normal;font-weight:normal;font-stretch:normal;font-size:16.9333px;line-height:1.25;font-family:sans-serif;font-variant-ligatures:normal;font-variant-position:normal;font-variant-caps:normal;font-variant-numeric:normal;font-variant-alternates:normal;font-variant-east-asian:normal;font-feature-settings:normal;font-variation-settings:normal;text-indent:0;text-align:start;text-decoration:none;text-decoration-line:none;text-decoration-style:solid;text-decoration-color:#000000;letter-spacing:0.264583px;word-spacing:normal;text-transform:none;writing-mode:lr-tb;direction:ltr;text-orientation:mixed;dominant-baseline:auto;baseline-shift:baseline;text-anchor:start;white-space:normal;shape-padding:0;shape-margin:0;inline-size:0;clip-rule:nonzero;display:inline;overflow:visible;visibility:visible;isolation:auto;mix-blend-mode:normal;color-interpolation:sRGB;color-interpolation-filters:linearRGB;solid-color:#000000;solid-opacity:1;vector-effect:none;fill:#000000;fill-opacity:1;fill-rule:nonzero;stroke:none;stroke-width:0.264583;stroke-linecap:butt;stroke-linejoin:miter;stroke-miterlimit:4;stroke-dasharray:none;stroke-dashoffset:0;stroke-opacity:1;color-rendering:auto;image-rendering:auto;shape-rendering:auto;text-rendering:auto;enable-background:accumulate;stop-color:#000000;stop-opacity:1"
           d="m 81.613281,3.6953125 v 1.7207031 h 4.398438 V 16.271484 h 1.902343 V 5.4160156 H 92.3125 V 5.2832031 3.6953125 Z m 0.263672,0.2636719 H 92.046875 V 5.1503906 H 87.648438 V 16.005859 H 86.275391 V 5.1503906 h -4.398438 z"
           id="path2208" />
      </g>
      <g
         id="g2210"
         style="opacity:1">
        <path
           style="color:#000000;font-style:normal;font-variant:normal;font-weight:normal;font-stretch:normal;font-size:16.9333px;line-height:1.25;font-family:sans-serif;font-variant-ligatures:normal;font-variant-position:normal;font-variant-caps:normal;font-variant-numeric:normal;font-variant-alternates:normal;font-variant-east-asian:normal;font-feature-settings:normal;font-variation-settings:normal;text-indent:0;text-align:start;text-decoration:none;text-decoration-line:none;text-decoration-style:solid;text-decoration-color:#000000;letter-spacing:0.264583px;word-spacing:normal;text-transform:none;writing-mode:lr-tb;direction:ltr;text-orientation:mixed;dominant-baseline:auto;baseline-shift:baseline;text-anchor:start;white-space:normal;shape-padding:0;shape-margin:0;inline-size:0;clip-rule:nonzero;display:inline;overflow:visible;visibility:visible;isolation:auto;mix-blend-mode:normal;color-interpolation:sRGB;color-interpolation-filters:linearRGB;solid-color:#000000;solid-opacity:1;vector-effect:none;fill:#ff0000;fill-opacity:1;fill-rule:nonzero;stroke:none;stroke-width:0.264583;stroke-linecap:butt;stroke-linejoin:miter;stroke-miterlimit:4;stroke-dasharray:none;stroke-dashoffset:0;stroke-opacity:1;color-rendering:auto;image-rendering:auto;shape-rendering:auto;text-rendering:auto;enable-background:accumulate;stop-color:#000000;stop-opacity:1"
           d="m 98.083251,8.5984012 h -0.08268 c -0.23151,-0.055121 -0.457508,-0.093706 -0.677993,-0.115755 -0.214974,-0.027561 -0.471289,-0.041341 -0.768944,-0.041341 -0.479557,0 -0.942577,0.1074868 -1.38906,0.3224603 -0.446483,0.2094614 -0.87643,0.4823124 -1.289841,0.8185531 V 16.139011 H 92.320307 V 6.9034176 h 1.554424 v 1.3642551 c 0.61736,-0.4960928 1.160306,-0.8461138 1.628838,-1.050063 0.474044,-0.2094614 0.956356,-0.3141921 1.446937,-0.3141921 0.270095,0 0.465776,0.00827 0.587043,0.024805 0.121267,0.011024 0.303168,0.035829 0.545702,0.074414 z"
           id="path2212" />
        <path
           style="color:#000000;font-style:normal;font-variant:normal;font-weight:normal;font-stretch:normal;font-size:16.9333px;line-height:1.25;font-family:sans-serif;font-variant-ligatures:normal;font-variant-position:normal;font-variant-caps:normal;font-variant-numeric:normal;font-variant-alternates:normal;font-variant-east-asian:normal;font-feature-settings:normal;font-variation-settings:normal;text-indent:0;text-align:start;text-decoration:none;text-decoration-line:none;text-decoration-style:solid;text-decoration-color:#000000;letter-spacing:0.264583px;word-spacing:normal;text-transform:none;writing-mode:lr-tb;direction:ltr;text-orientation:mixed;dominant-baseline:auto;baseline-shift:baseline;text-anchor:start;white-space:normal;shape-padding:0;shape-margin:0;inline-size:0;clip-rule:nonzero;display:inline;overflow:visible;visibility:visible;isolation:auto;mix-blend-mode:normal;color-interpolation:sRGB;color-interpolation-filters:linearRGB;solid-color:#000000;solid-opacity:1;vector-effect:none;fill:#000000;fill-opacity:1;fill-rule:nonzero;stroke:none;stroke-width:0.264583;stroke-linecap:butt;stroke-linejoin:miter;stroke-miterlimit:4;stroke-dasharray:none;stroke-dashoffset:0;stroke-opacity:1;color-rendering:auto;image-rendering:auto;shape-rendering:auto;text-rendering:auto;enable-background:accumulate;stop-color:#000000;stop-opacity:1"
           d="m 92.1875,6.7714844 v 9.4999996 h 1.820312 V 9.6542969 c 0.391145,-0.3125147 0.79374,-0.5748455 1.212891,-0.7714844 h 0.002 c 0.429803,-0.2069423 0.870289,-0.3085937 1.330078,-0.3085937 0.293573,0 0.546571,0.012481 0.753907,0.039062 l 0.002,0.00195 c 0.214186,0.021419 0.435938,0.057478 0.662109,0.1113281 l 0.01367,0.00391 h 0.230469 V 8.5976562 6.890625 l -0.11142,-0.019531 C 97.862065,6.8326809 97.681728,6.8085977 97.554688,6.796875 h -0.0059 C 97.414574,6.778943 97.221283,6.771484 96.951132,6.771484 c -0.509409,0 -1.012478,0.1079388 -1.501953,0.3242187 -0.421492,0.1836414 -0.91629,0.5273334 -1.441407,0.9296875 V 6.7714844 Z m 0.265625,0.2636718 h 1.289063 v 1.5078126 l 0.214843,-0.171875 c 0.611522,-0.4914018 1.147572,-0.834481 1.59961,-1.03125 v -0.00195 c 0.458612,-0.2026429 0.922778,-0.3027344 1.394531,-0.3027344 0.267395,0 0.460121,0.00868 0.568359,0.023438 l 0.0039,0.00195 h 0.002 c 0.0914,0.00831 0.254787,0.030809 0.425781,0.056641 V 8.4550781 C 97.74392,8.4088901 97.53931,8.3716672 97.339844,8.3515625 h -0.0039 c -0.221894,-0.028254 -0.482958,-0.042969 -0.783204,-0.042969 -0.499324,0 -0.982149,0.1129327 -1.445312,0.3359374 -0.456912,0.2143537 -0.895342,0.4934717 -1.316406,0.8359376 l -0.04883,0.039062 v 6.4863275 h -1.289063 z"
           id="path2214" />
      </g>
      <g
         id="g2216"
         style="opacity:1">
        <path
           style="color:#000000;font-style:normal;font-variant:normal;font-weight:normal;font-stretch:normal;font-size:16.9333px;line-height:1.25;font-family:sans-serif;font-variant-ligatures:normal;font-variant-position:normal;font-variant-caps:normal;font-variant-numeric:normal;font-variant-alternates:normal;font-variant-east-asian:normal;font-feature-settings:normal;font-variation-settings:normal;text-indent:0;text-align:start;text-decoration:none;text-decoration-line:none;text-decoration-style:solid;text-decoration-color:#000000;letter-spacing:0.264583px;word-spacing:normal;text-transform:none;writing-mode:lr-tb;direction:ltr;text-orientation:mixed;dominant-baseline:auto;baseline-shift:baseline;text-anchor:start;white-space:normal;shape-padding:0;shape-margin:0;inline-size:0;clip-rule:nonzero;display:inline;overflow:visible;visibility:visible;isolation:auto;mix-blend-mode:normal;color-interpolation:sRGB;color-interpolation-filters:linearRGB;solid-color:#000000;solid-opacity:1;vector-effect:none;fill:#ff0000;fill-opacity:1;fill-rule:nonzero;stroke:none;stroke-width:0.264583;stroke-linecap:butt;stroke-linejoin:miter;stroke-miterlimit:4;stroke-dasharray:none;stroke-dashoffset:0;stroke-opacity:1;color-rendering:auto;image-rendering:auto;shape-rendering:auto;text-rendering:auto;enable-background:accumulate;stop-color:#000000;stop-opacity:1"
           d="m 106.69046,16.139011 h -1.54616 v -0.983917 c -0.1378,0.09371 -0.32521,0.225998 -0.56223,0.396874 -0.23151,0.165365 -0.45751,0.297656 -0.678,0.396874 -0.25907,0.126779 -0.55672,0.23151 -0.89296,0.314193 -0.33625,0.08819 -0.73037,0.132291 -1.18236,0.132291 -0.83233,0 -1.53789,-0.275607 -2.116662,-0.826821 -0.578775,-0.551215 -0.868162,-1.254013 -0.868162,-2.108395 0,-0.700042 0.148828,-1.265036 0.446483,-1.694983 0.303168,-0.435459 0.733111,-0.777212 1.289841,-1.025259 0.56224,-0.248046 1.23748,-0.416166 2.02571,-0.504361 0.78824,-0.08819 1.63435,-0.15434 2.53834,-0.198437 V 9.7972921 c 0,-0.3527771 -0.0634,-0.6449206 -0.19016,-0.8764306 -0.12127,-0.2315099 -0.29766,-0.4134106 -0.52917,-0.545702 -0.22049,-0.1267793 -0.48507,-0.2122175 -0.79375,-0.2563146 -0.30868,-0.044097 -0.63114,-0.066146 -0.96738,-0.066146 -0.4079,0 -0.86265,0.055121 -1.36425,0.1653642 -0.50161,0.1047307 -1.01975,0.2590707 -1.554429,0.4630199 h -0.08268 V 7.1018547 c 0.303167,-0.082682 0.741379,-0.1736325 1.314639,-0.272851 0.57327,-0.099219 1.13827,-0.1488279 1.69499,-0.1488279 0.65044,0 1.21543,0.055121 1.69498,0.1653643 0.48507,0.1047307 0.90399,0.2866313 1.25677,0.545702 0.34727,0.2535585 0.61185,0.581531 0.79375,0.9839174 0.1819,0.4023863 0.27285,0.9012352 0.27285,1.4965465 z m -1.54616,-2.273758 v -2.571414 c -0.47404,0.02756 -1.03352,0.0689 -1.67844,0.124023 -0.63941,0.05512 -1.14653,0.135046 -1.52135,0.239778 -0.44649,0.126779 -0.80753,0.325216 -1.08314,0.595311 -0.27561,0.264583 -0.41341,0.631141 -0.41341,1.099673 0,0.529165 0.15985,0.928796 0.47956,1.198891 0.3197,0.264583 0.80752,0.396874 1.46347,0.396874 0.5457,0 1.04455,-0.104731 1.49655,-0.314192 0.45199,-0.214974 0.87091,-0.471289 1.25676,-0.768944 z"
           id="path2218" />
        <path
           style="color:#000000;font-style:normal;font-variant:normal;font-weight:normal;font-stretch:normal;font-size:16.9333px;line-height:1.25;font-family:sans-serif;font-variant-ligatures:normal;font-variant-position:normal;font-variant-caps:normal;font-variant-numeric:normal;font-variant-alternates:normal;font-variant-east-asian:normal;font-feature-settings:normal;font-variation-settings:normal;text-indent:0;text-align:start;text-decoration:none;text-decoration-line:none;text-decoration-style:solid;text-decoration-color:#000000;letter-spacing:0.264583px;word-spacing:normal;text-transform:none;writing-mode:lr-tb;direction:ltr;text-orientation:mixed;dominant-baseline:auto;baseline-shift:baseline;text-anchor:start;white-space:normal;shape-padding:0;shape-margin:0;inline-size:0;clip-rule:nonzero;display:inline;overflow:visible;visibility:visible;isolation:auto;mix-blend-mode:normal;color-interpolation:sRGB;color-interpolation-filters:linearRGB;solid-color:#000000;solid-opacity:1;vector-effect:none;fill:#000000;fill-opacity:1;fill-rule:nonzero;stroke:none;stroke-width:0.264583;stroke-linecap:butt;stroke-linejoin:miter;stroke-miterlimit:4;stroke-dasharray:none;stroke-dashoffset:0;stroke-opacity:1;color-rendering:auto;image-rendering:auto;shape-rendering:auto;text-rendering:auto;enable-background:accumulate;stop-color:#000000;stop-opacity:1"
           d="m 102.67188,6.5488281 c -0.56459,0 -1.13644,0.049945 -1.7168,0.1503907 -0.57549,0.099603 -1.017498,0.1906735 -1.328127,0.2753906 L 99.529297,7 v 1.8125 h 0.240234 l 0.02344,-0.00781 c 0.528849,-0.201727 1.039209,-0.3538899 1.533199,-0.4570313 h 0.002 c 0.49426,-0.1086289 0.93996,-0.1621093 1.33594,-0.1621093 0.33046,0 0.6472,0.021307 0.94922,0.064453 0.29548,0.042211 0.54299,0.1234492 0.7461,0.2402344 0.21128,0.1207353 0.36849,0.2821534 0.47851,0.4921875 v 0.00195 c 0.11318,0.2066812 0.17383,0.4755696 0.17383,0.8125 v 0.1171875 c -0.85578,0.044107 -1.66799,0.1053212 -2.41992,0.1894532 -0.7984,0.08933 -1.48663,0.2607 -2.06446,0.515625 -0.574854,0.256126 -1.027563,0.613356 -1.345697,1.070312 -0.316782,0.457574 -0.470703,1.052693 -0.470703,1.771485 0,0.884254 0.306663,1.628369 0.910156,2.203124 0.601704,0.573056 1.345494,0.863282 2.207024,0.863282 0.45987,0 0.86491,-0.04513 1.21485,-0.136719 0.34229,-0.08417 0.64772,-0.189391 0.91601,-0.320313 l 0.004,-0.002 c 0.22857,-0.103195 0.4591,-0.239478 0.69531,-0.408203 h 0.002 c 0.14891,-0.107357 0.24232,-0.173469 0.35156,-0.25 v 0.861328 h 1.81055 V 16.138672 9.8710938 c 0,-0.6087855 -0.0912,-1.1260813 -0.28321,-1.5507813 -0.19062,-0.4216763 -0.47259,-0.7684313 -0.83789,-1.0351563 -0.36848,-0.2702722 -0.80551,-0.4603441 -1.30469,-0.5683593 h -0.002 c -0.49191,-0.1129127 -1.06549,-0.1679688 -1.72265,-0.1679688 z m 0,0.2636719 c 0.64295,0 1.19918,0.054792 1.66601,0.1621094 h 0.002 c 0.46954,0.1013778 0.86876,0.2764548 1.20508,0.5234375 0.32924,0.240392 0.57878,0.5485441 0.75196,0.9316406 0.17181,0.3800727 0.26171,0.859569 0.26171,1.4414063 v 6.1347652 h -1.28125 v -1.101562 l -0.20703,0.140625 c -0.13955,0.0949 -0.32882,0.229111 -0.5664,0.40039 -0.2247,0.160294 -0.44384,0.288105 -0.6543,0.382813 h -0.002 l -0.002,0.002 c -0.24897,0.121838 -0.53657,0.223868 -0.86523,0.304688 h -0.002 c -0.32218,0.0845 -0.70701,0.128906 -1.1504,0.128906 -0.80312,0 -1.46954,-0.261643 -2.025386,-0.791016 -0.554056,-0.527673 -0.826171,-1.187209 -0.826172,-2.011718 0,-0.681293 0.143347,-1.218775 0.421876,-1.621094 0.287921,-0.413561 0.696562,-0.738615 1.234372,-0.978516 0.54665,-0.241168 1.21022,-0.407083 1.98828,-0.49414 0.78511,-0.08784 1.62773,-0.153287 2.5293,-0.197266 l 0.12695,-0.0078 V 9.796875 c 0,-0.3686237 -0.0667,-0.6831143 -0.20703,-0.9394531 -0.1325,-0.251816 -0.32918,-0.4542842 -0.58008,-0.5976563 -0.23786,-0.1367734 -0.51795,-0.2255007 -0.83984,-0.2714844 -0.31534,-0.045048 -0.6443,-0.068359 -0.98633,-0.068359 -0.41982,0 -0.88363,0.056112 -1.39258,0.1679687 -0.4771,0.099714 -0.972,0.2520803 -1.476558,0.4394532 V 7.2089844 C 100.08785,7.1329988 100.47171,7.0504194 101,6.9589844 101.56618,6.860993 102.12301,6.8125 102.67188,6.8125 Z m 2.60546,4.341797 -0.14062,0.0078 c -0.47567,0.02766 -1.03585,0.06785 -1.68164,0.123047 -0.64435,0.05555 -1.15907,0.135781 -1.54688,0.244141 v 0.002 c -0.46335,0.131568 -0.84495,0.339105 -1.13867,0.626953 -0.30375,0.2916 -0.45312,0.700841 -0.45312,1.195313 0,0.555807 0.17315,1.001247 0.52539,1.298828 l 0.002,0.002 c 0.35394,0.292916 0.87314,0.425781 1.54687,0.425781 0.56263,0 1.08231,-0.108171 1.55274,-0.326172 h 0.002 c 0.4602,-0.218874 0.88587,-0.479696 1.2793,-0.783203 l 0.0527,-0.04101 v -0.06445 z m -0.26562,0.28125 v 2.357422 c -0.36395,0.275373 -0.75594,0.518965 -1.17969,0.720703 -0.43357,0.200922 -0.91263,0.302734 -1.44141,0.302734 -0.63731,0 -1.09141,-0.131531 -1.37695,-0.367187 h -0.002 c -0.28595,-0.242561 -0.43164,-0.594259 -0.43164,-1.095703 0,-0.442593 0.12558,-0.768293 0.37304,-1.00586 0.2575,-0.252341 0.59773,-0.44051 1.02735,-0.5625 0.36183,-0.101104 0.86162,-0.181634 1.49609,-0.236328 0.59002,-0.05043 1.08917,-0.086 1.53516,-0.113281 z"
           id="path2220" />
      </g>
      <g
         id="g2222"
         style="opacity:1">
        <path
           style="color:#000000;font-style:normal;font-variant:normal;font-weight:normal;font-stretch:normal;font-size:16.9333px;line-height:1.25;font-family:sans-serif;font-variant-ligatures:normal;font-variant-position:normal;font-variant-caps:normal;font-variant-numeric:normal;font-variant-alternates:normal;font-variant-east-asian:normal;font-feature-settings:normal;font-variation-settings:normal;text-indent:0;text-align:start;text-decoration:none;text-decoration-line:none;text-decoration-style:solid;text-decoration-color:#000000;letter-spacing:0.264583px;word-spacing:normal;text-transform:none;writing-mode:lr-tb;direction:ltr;text-orientation:mixed;dominant-baseline:auto;baseline-shift:baseline;text-anchor:start;white-space:normal;shape-padding:0;shape-margin:0;inline-size:0;clip-rule:nonzero;display:inline;overflow:visible;visibility:visible;isolation:auto;mix-blend-mode:normal;color-interpolation:sRGB;color-interpolation-filters:linearRGB;solid-color:#000000;solid-opacity:1;vector-effect:none;fill:#ff0000;fill-opacity:1;fill-rule:nonzero;stroke:none;stroke-width:0.264583;stroke-linecap:butt;stroke-linejoin:miter;stroke-miterlimit:4;stroke-dasharray:none;stroke-dashoffset:0;stroke-opacity:1;color-rendering:auto;image-rendering:auto;shape-rendering:auto;text-rendering:auto;enable-background:accumulate;stop-color:#000000;stop-opacity:1"
           d="m 116.77768,15.560236 c -0.51814,0.248047 -1.01148,0.440972 -1.48001,0.578775 -0.46302,0.137804 -0.95636,0.206706 -1.48001,0.206706 -0.66697,0 -1.27881,-0.09646 -1.83554,-0.289388 -0.55673,-0.198437 -1.03353,-0.496092 -1.4304,-0.892967 -0.40239,-0.396874 -0.71382,-0.898479 -0.93431,-1.504814 -0.22049,-0.606336 -0.33073,-1.314646 -0.33073,-2.124931 0,-1.510327 0.41341,-2.6954376 1.24023,-3.5553317 0.83233,-0.8598942 1.92925,-1.2898413 3.29075,-1.2898413 0.52917,0 1.04731,0.074414 1.55443,0.2232418 0.51263,0.1488278 0.98116,0.3307285 1.40559,0.545702 v 1.7280565 h -0.0827 c -0.47405,-0.3693135 -0.96463,-0.6531888 -1.47174,-0.8516259 -0.50161,-0.1984371 -0.99219,-0.2976557 -1.47174,-0.2976557 -0.88195,0 -1.57923,0.2976557 -2.09186,0.892967 -0.50712,0.5897992 -0.76068,1.4579613 -0.76068,2.6044873 0,1.113453 0.24805,1.970591 0.74414,2.571414 0.50161,0.595311 1.20441,0.892967 2.1084,0.892967 0.31419,0 0.63389,-0.04134 0.95911,-0.124023 0.32521,-0.08268 0.61736,-0.190169 0.87643,-0.32246 0.226,-0.115755 0.43822,-0.237023 0.63665,-0.363802 0.19844,-0.132291 0.35554,-0.24529 0.47129,-0.338997 h 0.0827 z"
           id="path2224" />
        <path
           style="color:#000000;font-style:normal;font-variant:normal;font-weight:normal;font-stretch:normal;font-size:16.9333px;line-height:1.25;font-family:sans-serif;font-variant-ligatures:normal;font-variant-position:normal;font-variant-caps:normal;font-variant-numeric:normal;font-variant-alternates:normal;font-variant-east-asian:normal;font-feature-settings:normal;font-variation-settings:normal;text-indent:0;text-align:start;text-decoration:none;text-decoration-line:none;text-decoration-style:solid;text-decoration-color:#000000;letter-spacing:0.264583px;word-spacing:normal;text-transform:none;writing-mode:lr-tb;direction:ltr;text-orientation:mixed;dominant-baseline:auto;baseline-shift:baseline;text-anchor:start;white-space:normal;shape-padding:0;shape-margin:0;inline-size:0;clip-rule:nonzero;display:inline;overflow:visible;visibility:visible;isolation:auto;mix-blend-mode:normal;color-interpolation:sRGB;color-interpolation-filters:linearRGB;solid-color:#000000;solid-opacity:1;vector-effect:none;fill:#000000;fill-opacity:1;fill-rule:nonzero;stroke:none;stroke-width:0.264583;stroke-linecap:butt;stroke-linejoin:miter;stroke-miterlimit:4;stroke-dasharray:none;stroke-dashoffset:0;stroke-opacity:1;color-rendering:auto;image-rendering:auto;shape-rendering:auto;text-rendering:auto;enable-background:accumulate;stop-color:#000000;stop-opacity:1"
           d="m 113.81836,6.5566406 c -1.38935,0 -2.52932,0.4442831 -3.38672,1.3300782 -0.85364,0.8877879 -1.27734,2.1120166 -1.27734,3.6464842 0,0.822284 0.11093,1.545799 0.33789,2.169922 0.22615,0.621914 0.54903,1.142644 0.96679,1.554687 0.41095,0.41095 0.90488,0.719365 1.47852,0.923829 h 0.002 c 0.57217,0.198277 1.19919,0.296875 1.87891,0.296875 0.53526,0 1.04149,-0.0712 1.51758,-0.212891 0.47648,-0.140141 0.9745,-0.335305 1.49804,-0.585937 l 0.0762,-0.03516 v -0.08398 -1.84375 h -0.26172 l -0.0371,0.0293 c -0.11068,0.0896 -0.26462,0.201151 -0.46094,0.332031 -0.19401,0.123848 -0.40133,0.241907 -0.62305,0.355469 -0.24904,0.127172 -0.53259,0.231902 -0.84961,0.3125 -0.31536,0.08018 -0.62319,0.11914 -0.92578,0.11914 -0.87495,0 -1.53144,-0.280338 -2.00781,-0.845703 -0.46988,-0.569838 -0.71289,-1.393316 -0.71289,-2.486328 0,-1.127021 0.24902,-1.959911 0.72852,-2.517578 0.48814,-0.5668849 1.14,-0.8476562 1.99218,-0.8476562 0.46131,0 0.93368,0.09593 1.42188,0.2890624 h 0.002 c 0.49421,0.193386 0.97243,0.4697135 1.4375,0.8320313 l 0.0371,0.029297 h 0.25977 V 7.3769531 l -0.0723,-0.037109 c -0.43209,-0.2188535 -0.90884,-0.403929 -1.42773,-0.5546876 h -0.002 c -0.5185,-0.1519635 -1.04897,-0.2285159 -1.58989,-0.2285159 z m 0,0.2636719 c 0.51676,0 1.02043,0.073423 1.51562,0.21875 h 0.002 c 0.47844,0.1389025 0.91019,0.3115564 1.30859,0.5078125 v 1.4589844 c -0.44392,-0.3298912 -0.89833,-0.6091617 -1.37305,-0.7949219 -0.51501,-0.2037421 -1.02173,-0.3066406 -1.51953,-0.3066406 -0.91171,0 -1.65625,0.3157154 -2.19336,0.9394531 -0.53474,0.6219314 -0.79101,1.523423 -0.79101,2.689453 0,1.1331 0.2518,2.024488 0.77344,2.65625 0.52684,0.625258 1.2779,0.941406 2.21093,0.941406 0.32579,0 0.65711,-0.04372 0.99219,-0.128906 0.33341,-0.08477 0.63325,-0.19462 0.90234,-0.332031 0.22946,-0.117527 0.4462,-0.241881 0.64844,-0.371094 h 0.002 v -0.002 c 0.14509,-0.09672 0.24456,-0.172355 0.34765,-0.25 v 1.423828 c -0.4835,0.227242 -0.94815,0.4126 -1.38476,0.541016 -0.44996,0.133914 -0.92936,0.201172 -1.44141,0.201172 -0.65352,0 -1.25019,-0.09407 -1.79102,-0.28125 h -0.002 c -0.5391,-0.192406 -0.99845,-0.478918 -1.38086,-0.861329 v -0.002 c -0.38701,-0.381705 -0.68752,-0.864321 -0.90234,-1.455078 -0.21402,-0.588549 -0.32227,-1.281792 -0.32227,-2.080078 0,-1.486186 0.40313,-2.6308902 1.20313,-3.4628905 0.80711,-0.8331889 1.8623,-1.25 3.19531,-1.25 z"
           id="path2226" />
      </g>
      <g
         id="g2228"
         style="opacity:1">
        <path
           style="color:#000000;font-style:normal;font-variant:normal;font-weight:normal;font-stretch:normal;font-size:16.9333px;line-height:1.25;font-family:sans-serif;font-variant-ligatures:normal;font-variant-position:normal;font-variant-caps:normal;font-variant-numeric:normal;font-variant-alternates:normal;font-variant-east-asian:normal;font-feature-settings:normal;font-variation-settings:normal;text-indent:0;text-align:start;text-decoration:none;text-decoration-line:none;text-decoration-style:solid;text-decoration-color:#000000;letter-spacing:0.264583px;word-spacing:normal;text-transform:none;writing-mode:lr-tb;direction:ltr;text-orientation:mixed;dominant-baseline:auto;baseline-shift:baseline;text-anchor:start;white-space:normal;shape-padding:0;shape-margin:0;inline-size:0;clip-rule:nonzero;display:inline;overflow:visible;visibility:visible;isolation:auto;mix-blend-mode:normal;color-interpolation:sRGB;color-interpolation-filters:linearRGB;solid-color:#000000;solid-opacity:1;vector-effect:none;fill:#ff0000;fill-opacity:1;fill-rule:nonzero;stroke:none;stroke-width:0.264583;stroke-linecap:butt;stroke-linejoin:miter;stroke-miterlimit:4;stroke-dasharray:none;stroke-dashoffset:0;stroke-opacity:1;color-rendering:auto;image-rendering:auto;shape-rendering:auto;text-rendering:auto;enable-background:accumulate;stop-color:#000000;stop-opacity:1"
           d="m 127.41887,16.139011 h -2.05051 l -3.70416,-4.043156 -1.00872,0.959113 v 3.084043 h -1.55443 V 3.2736721 h 1.55443 v 8.2516769 l 4.48964,-4.6219314 h 1.95956 l -4.2912,4.2663974 z"
           id="path2230" />
        <path
           style="color:#000000;font-style:normal;font-variant:normal;font-weight:normal;font-stretch:normal;font-size:16.9333px;line-height:1.25;font-family:sans-serif;font-variant-ligatures:normal;font-variant-position:normal;font-variant-caps:normal;font-variant-numeric:normal;font-variant-alternates:normal;font-variant-east-asian:normal;font-feature-settings:normal;font-variation-settings:normal;text-indent:0;text-align:start;text-decoration:none;text-decoration-line:none;text-decoration-style:solid;text-decoration-color:#000000;letter-spacing:0.264583px;word-spacing:normal;text-transform:none;writing-mode:lr-tb;direction:ltr;text-orientation:mixed;dominant-baseline:auto;baseline-shift:baseline;text-anchor:start;white-space:normal;shape-padding:0;shape-margin:0;inline-size:0;clip-rule:nonzero;display:inline;overflow:visible;visibility:visible;isolation:auto;mix-blend-mode:normal;color-interpolation:sRGB;color-interpolation-filters:linearRGB;solid-color:#000000;solid-opacity:1;vector-effect:none;fill:#000000;fill-opacity:1;fill-rule:nonzero;stroke:none;stroke-width:0.264583;stroke-linecap:butt;stroke-linejoin:miter;stroke-miterlimit:4;stroke-dasharray:none;stroke-dashoffset:0;stroke-opacity:1;color-rendering:auto;image-rendering:auto;shape-rendering:auto;text-rendering:auto;enable-background:accumulate;stop-color:#000000;stop-opacity:1"
           d="m 118.96875,3.140625 v 13.130859 h 1.81836 v -3.160156 l 0.87109,-0.826172 3.65235,3.986328 h 2.41211 l -0.20704,-0.222656 -4.51757,-4.875 4.42773,-4.4023436 h -2.33594 l -4.30273,4.4296876 V 3.140625 Z m 0.26367,0.265625 h 1.29102 v 8.445312 l 4.67773,-4.8164058 h 1.58399 l -4.15625,4.1308598 4.48632,4.839843 h -1.68945 l -3.75586,-4.099609 -1.14648,1.091797 v 3.007812 h -1.29102 z"
           id="path2232" />
      </g>
      <g
         id="g2234"
         style="opacity:1">
        <path
           style="color:#000000;font-style:normal;font-variant:normal;font-weight:normal;font-stretch:normal;font-size:16.9333px;line-height:1.25;font-family:sans-serif;font-variant-ligatures:normal;font-variant-position:normal;font-variant-caps:normal;font-variant-numeric:normal;font-variant-alternates:normal;font-variant-east-asian:normal;font-feature-settings:normal;font-variation-settings:normal;text-indent:0;text-align:start;text-decoration:none;text-decoration-line:none;text-decoration-style:solid;text-decoration-color:#000000;letter-spacing:0.264583px;word-spacing:normal;text-transform:none;writing-mode:lr-tb;direction:ltr;text-orientation:mixed;dominant-baseline:auto;baseline-shift:baseline;text-anchor:start;white-space:normal;shape-padding:0;shape-margin:0;inline-size:0;clip-rule:nonzero;display:inline;overflow:visible;visibility:visible;isolation:auto;mix-blend-mode:normal;color-interpolation:sRGB;color-interpolation-filters:linearRGB;solid-color:#000000;solid-opacity:1;vector-effect:none;fill:#ff0000;fill-opacity:1;fill-rule:nonzero;stroke:none;stroke-width:0.264583;stroke-linecap:butt;stroke-linejoin:miter;stroke-miterlimit:4;stroke-dasharray:none;stroke-dashoffset:0;stroke-opacity:1;color-rendering:auto;image-rendering:auto;shape-rendering:auto;text-rendering:auto;enable-background:accumulate;stop-color:#000000;stop-opacity:1"
           d="m 136.88598,11.682445 h -6.80474 c 0,0.567751 0.0854,1.063843 0.25631,1.488278 0.17088,0.418923 0.40515,0.763432 0.7028,1.033527 0.28663,0.264583 0.62563,0.46302 1.01699,0.595311 0.39687,0.132291 0.83233,0.198437 1.30638,0.198437 0.62839,0 1.25953,-0.124023 1.89342,-0.37207 0.63941,-0.253558 1.09416,-0.501604 1.36426,-0.744139 h 0.0827 v 1.694984 c -0.52365,0.220485 -1.05833,0.405142 -1.60404,0.55397 -0.5457,0.148828 -1.11896,0.223242 -1.71978,0.223242 -1.53238,0 -2.72852,-0.413411 -3.58841,-1.240232 -0.85989,-0.832333 -1.28984,-2.011932 -1.28984,-3.538795 0,-1.510327 0.41065,-2.7092179 1.23196,-3.5966727 0.82683,-0.8874549 1.91272,-1.3311823 3.25768,-1.3311823 1.24575,0 2.20486,0.3638014 2.87734,1.0914041 0.67799,0.7276027 1.01699,1.7611294 1.01699,3.1005799 z m -1.51308,-1.190623 c -0.005,-0.815797 -0.21204,-1.4469373 -0.62012,-1.8934208 -0.40239,-0.4464835 -1.01699,-0.6697252 -1.84381,-0.6697252 -0.83233,0 -1.49655,0.2452903 -1.99264,0.7358709 -0.49058,0.4905807 -0.76894,1.0996724 -0.83509,1.8272751 z"
           id="path2236" />
        <path
           style="color:#000000;font-style:normal;font-variant:normal;font-weight:normal;font-stretch:normal;font-size:16.9333px;line-height:1.25;font-family:sans-serif;font-variant-ligatures:normal;font-variant-position:normal;font-variant-caps:normal;font-variant-numeric:normal;font-variant-alternates:normal;font-variant-east-asian:normal;font-feature-settings:normal;font-variation-settings:normal;text-indent:0;text-align:start;text-decoration:none;text-decoration-line:none;text-decoration-style:solid;text-decoration-color:#000000;letter-spacing:0.264583px;word-spacing:normal;text-transform:none;writing-mode:lr-tb;direction:ltr;text-orientation:mixed;dominant-baseline:auto;baseline-shift:baseline;text-anchor:start;white-space:normal;shape-padding:0;shape-margin:0;inline-size:0;clip-rule:nonzero;display:inline;overflow:visible;visibility:visible;isolation:auto;mix-blend-mode:normal;color-interpolation:sRGB;color-interpolation-filters:linearRGB;solid-color:#000000;solid-opacity:1;vector-effect:none;fill:#000000;fill-opacity:1;fill-rule:nonzero;stroke:none;stroke-width:0.264583;stroke-linecap:butt;stroke-linejoin:miter;stroke-miterlimit:4;stroke-dasharray:none;stroke-dashoffset:0;stroke-opacity:1;color-rendering:auto;image-rendering:auto;shape-rendering:auto;text-rendering:auto;enable-background:accumulate;stop-color:#000000;stop-opacity:1"
           d="m 132.99219,6.515625 c -1.37406,0 -2.50426,0.4594164 -3.35547,1.3730469 -0.84672,0.9149121 -1.26758,2.1512401 -1.26758,3.6855471 0,1.551698 0.44114,2.774316 1.33008,3.634765 0.88819,0.854034 2.12547,1.277344 3.68164,1.277344 0.61174,0 1.19632,-0.07644 1.75391,-0.228516 0.55134,-0.150365 1.0921,-0.335861 1.62109,-0.558593 l 0.0801,-0.03516 V 13.75 h -0.26563 l -0.0371,0.0332 c -0.24854,0.223175 -0.69231,0.47012 -1.32422,0.720703 v -0.002 c -0.62007,0.242641 -1.23472,0.363281 -1.8457,0.363281 -0.46174,0 -0.88179,-0.06411 -1.26367,-0.191406 -0.3753,-0.126861 -0.69609,-0.314724 -0.96875,-0.566406 h -0.002 v -0.002 c -0.28178,-0.255689 -0.50348,-0.581119 -0.66797,-0.984375 -0.14817,-0.36804 -0.21065,-0.816006 -0.22461,-1.306641 h 6.78125 v -0.132812 -0.841797 c 0,-1.3617716 -0.34714,-2.4341821 -1.05274,-3.1914065 C 135.26476,6.8916406 134.263,6.515528 132.99217,6.515528 Z m 0,0.2636719 c 1.21999,0 2.13445,0.3511276 2.77929,1.0488281 0.6504,0.6979811 0.98243,1.694589 0.98243,3.011719 v 0.710937 h -6.80469 v 0.13086 c 0,0.581022 0.0871,1.095671 0.26562,1.539062 0.17706,0.434053 0.42336,0.795735 0.73633,1.080078 0.30061,0.277483 0.65703,0.487279 1.06445,0.625 0.41187,0.137289 0.86131,0.205078 1.34766,0.205078 0.64579,0 1.2937,-0.127407 1.94141,-0.380859 v -0.002 h 0.002 c 0.58396,-0.23157 0.97177,-0.458841 1.26563,-0.693359 v 1.427734 c -0.49325,0.203851 -0.99495,0.381612 -1.50782,0.521484 -0.53381,0.145585 -1.09369,0.21875 -1.68359,0.21875 -1.50743,0 -2.66464,-0.404737 -3.49609,-1.203125 l -0.002,-0.002 c -0.82956,-0.80411 -1.24804,-1.942498 -1.24804,-3.443359 0,-1.486347 0.40137,-2.6458622 1.19726,-3.5058596 0.80229,-0.8604609 1.84492,-1.2890625 3.16016,-1.2890625 z m -0.084,1.0175781 c -0.85832,0 -1.56159,0.2568474 -2.08398,0.7734375 h -0.002 c -0.51161,0.5116018 -0.80448,1.155856 -0.87305,1.9101565 l -0.0137,0.144531 h 5.57031 v -0.134766 c -0.005,-0.8376958 -0.2212,-1.5045797 -0.65616,-1.9804684 C 134.41704,8.0306703 133.75808,7.796875 132.9082,7.796875 Z m 0,0.2636719 c 0.80301,0 1.37388,0.2139429 1.7461,0.6269531 0.35316,0.3863946 0.51179,0.9635087 0.54297,1.671875 h -4.91797 c 0.0889,-0.6238454 0.29982,-1.1709156 0.73047,-1.6015625 0.46979,-0.4645711 1.09209,-0.6972656 1.89843,-0.6972656 z"
           id="path2238" />
      </g>
      <g
         id="g2240"
         style="opacity:1">
        <path
           style="color:#000000;font-style:normal;font-variant:normal;font-weight:normal;font-stretch:normal;font-size:16.9333px;line-height:1.25;font-family:sans-serif;font-variant-ligatures:normal;font-variant-position:normal;font-variant-caps:normal;font-variant-numeric:normal;font-variant-alternates:normal;font-variant-east-asian:normal;font-feature-settings:normal;font-variation-settings:normal;text-indent:0;text-align:start;text-decoration:none;text-decoration-line:none;text-decoration-style:solid;text-decoration-color:#000000;letter-spacing:0.264583px;word-spacing:normal;text-transform:none;writing-mode:lr-tb;direction:ltr;text-orientation:mixed;dominant-baseline:auto;baseline-shift:baseline;text-anchor:start;white-space:normal;shape-padding:0;shape-margin:0;inline-size:0;clip-rule:nonzero;display:inline;overflow:visible;visibility:visible;isolation:auto;mix-blend-mode:normal;color-interpolation:sRGB;color-interpolation-filters:linearRGB;solid-color:#000000;solid-opacity:1;vector-effect:none;fill:#ff0000;fill-opacity:1;fill-rule:nonzero;stroke:none;stroke-width:0.264583;stroke-linecap:butt;stroke-linejoin:miter;stroke-miterlimit:4;stroke-dasharray:none;stroke-dashoffset:0;stroke-opacity:1;color-rendering:auto;image-rendering:auto;shape-rendering:auto;text-rendering:auto;enable-background:accumulate;stop-color:#000000;stop-opacity:1"
           d="m 145.26994,8.5984012 h -0.0827 c -0.23151,-0.055121 -0.4575,-0.093706 -0.67799,-0.115755 -0.21497,-0.027561 -0.47129,-0.041341 -0.76895,-0.041341 -0.47955,0 -0.94257,0.1074868 -1.38906,0.3224603 -0.44648,0.2094614 -0.87643,0.4823124 -1.28984,0.8185531 V 16.139011 H 139.507 V 6.9034176 h 1.55442 v 1.3642551 c 0.61736,-0.4960928 1.16031,-0.8461138 1.62884,-1.050063 0.47405,-0.2094614 0.95636,-0.3141921 1.44694,-0.3141921 0.27009,0 0.46577,0.00827 0.58704,0.024805 0.12127,0.011024 0.30317,0.035829 0.5457,0.074414 z"
           id="path2242" />
        <path
           style="color:#000000;font-style:normal;font-variant:normal;font-weight:normal;font-stretch:normal;font-size:16.9333px;line-height:1.25;font-family:sans-serif;font-variant-ligatures:normal;font-variant-position:normal;font-variant-caps:normal;font-variant-numeric:normal;font-variant-alternates:normal;font-variant-east-asian:normal;font-feature-settings:normal;font-variation-settings:normal;text-indent:0;text-align:start;text-decoration:none;text-decoration-line:none;text-decoration-style:solid;text-decoration-color:#000000;letter-spacing:0.264583px;word-spacing:normal;text-transform:none;writing-mode:lr-tb;direction:ltr;text-orientation:mixed;dominant-baseline:auto;baseline-shift:baseline;text-anchor:start;white-space:normal;shape-padding:0;shape-margin:0;inline-size:0;clip-rule:nonzero;display:inline;overflow:visible;visibility:visible;isolation:auto;mix-blend-mode:normal;color-interpolation:sRGB;color-interpolation-filters:linearRGB;solid-color:#000000;solid-opacity:1;vector-effect:none;fill:#000000;fill-opacity:1;fill-rule:nonzero;stroke:none;stroke-width:0.264583;stroke-linecap:butt;stroke-linejoin:miter;stroke-miterlimit:4;stroke-dasharray:none;stroke-dashoffset:0;stroke-opacity:1;color-rendering:auto;image-rendering:auto;shape-rendering:auto;text-rendering:auto;enable-background:accumulate;stop-color:#000000;stop-opacity:1"
           d="m 139.375,6.7714844 v 9.4999996 h 1.81836 V 9.6542969 c 0.39116,-0.312534 0.79568,-0.5748367 1.21484,-0.7714844 0.42981,-0.2069425 0.87225,-0.3085937 1.33203,-0.3085937 0.29358,0 0.54462,0.012481 0.75196,0.039062 h 0.002 l 0.002,0.00195 c 0.21419,0.021419 0.43399,0.057478 0.66016,0.1113281 l 0.0156,0.00391 h 0.23046 V 8.5976562 6.890625 L 145.29109,6.871094 C 145.04964,6.832681 144.8693,6.808598 144.74226,6.796875 h -0.006 c -0.13422,-0.017934 -0.32945,-0.025391 -0.59961,-0.025391 -0.50941,0 -1.01052,0.1079389 -1.5,0.3242187 -0.42215,0.18376 -0.91721,0.5264306 -1.44336,0.9296875 V 6.7714844 Z m 0.26367,0.2636718 h 1.29102 v 1.5078126 l 0.21484,-0.171875 c 0.61152,-0.4914017 1.14562,-0.834481 1.59766,-1.03125 l 0.002,-0.00195 c 0.45862,-0.202643 0.92083,-0.3027344 1.39258,-0.3027344 0.26739,0 0.46207,0.00868 0.57031,0.023438 l 0.002,0.00195 h 0.004 c 0.091,0.00827 0.25395,0.031004 0.42383,0.056641 V 8.455079 C 144.93024,8.409088 144.7245,8.371613 144.52558,8.3515634 h -0.004 c -0.22189,-0.028254 -0.481,-0.042969 -0.78125,-0.042969 -0.49932,0 -0.98409,0.1129329 -1.44726,0.3359374 -0.45639,0.2142633 -0.89383,0.493834 -1.31445,0.8359376 l -0.0488,0.039062 v 6.4863276 h -1.29102 z"
           id="path2244" />
      </g>
    </g>
  </g>
</svg>
